<?xml version="1.0" encoding="UTF-8" standalone="no"?>
<!DOCTYPE svg PUBLIC "-//W3C//DTD SVG 1.1//EN"
 "http://www.w3.org/Graphics/SVG/1.1/DTD/svg11.dtd">
<!-- Generated by graphviz version 2.38.0 (20140413.2041)
 -->
<!-- Title: Tree Pages: 1 -->
<svg width="338pt" height="300pt"
 viewBox="0.00 0.00 337.54 300.00" xmlns="http://www.w3.org/2000/svg" xmlns:xlink="http://www.w3.org/1999/xlink">
<g id="graph0" class="graph" transform="scale(1 1) rotate(0) translate(4 296)">
<title>Tree</title>
<polygon fill="white" stroke="none" points="-4,4 -4,-296 333.537,-296 333.537,4 -4,4"/>
<!-- 0 -->
<g id="node1" class="node"><title>0</title>
<polygon fill="none" stroke="black" points="211.688,-292 52.8496,-292 52.8496,-214 211.688,-214 211.688,-292"/>
<text text-anchor="middle" x="132.269" y="-276.8" font-family="Times,serif" font-size="14.00">petal length (cm) &lt;= 2.45</text>
<text text-anchor="middle" x="132.269" y="-262.8" font-family="Times,serif" font-size="14.00">gini = 0.667</text>
<text text-anchor="middle" x="132.269" y="-248.8" font-family="Times,serif" font-size="14.00">samples = 150</text>
<text text-anchor="middle" x="132.269" y="-234.8" font-family="Times,serif" font-size="14.00">value = [50, 50, 50]</text>
<text text-anchor="middle" x="132.269" y="-220.8" font-family="Times,serif" font-size="14.00">class = setosa</text>
</g>
<!-- 1 -->
<g id="node2" class="node"><title>1</title>
<polygon fill="#e58139" stroke="black" points="112.307,-171 0.230497,-171 0.230497,-107 112.307,-107 112.307,-171"/>
<text text-anchor="middle" x="56.2686" y="-155.8" font-family="Times,serif" font-size="14.00">gini = 0.0</text>
<text text-anchor="middle" x="56.2686" y="-141.8" font-family="Times,serif" font-size="14.00">samples = 50</text>
<text text-anchor="middle" x="56.2686" y="-127.8" font-family="Times,serif" font-size="14.00">value = [50, 0, 0]</text>
<text text-anchor="middle" x="56.2686" y="-113.8" font-family="Times,serif" font-size="14.00">class = setosa</text>
</g>
<!-- 0&#45;&gt;1 -->
<g id="edge1" class="edge"><title>0&#45;&gt;1</title>
<path fill="none" stroke="black" d="M106.326,-213.769C98.7876,-202.66 90.5426,-190.509 82.9589,-179.333"/>
<polygon fill="black" stroke="black" points="85.8223,-177.32 77.3111,-171.01 80.03,-181.25 85.8223,-177.32"/>
<text text-anchor="middle" x="72.6093" y="-191.364" font-family="Times,serif" font-size="14.00">True</text>
</g>
<!-- 2 -->
<g id="node3" class="node"><title>2</title>
<polygon fill="none" stroke="black" points="286.084,-178 130.453,-178 130.453,-100 286.084,-100 286.084,-178"/>
<text text-anchor="middle" x="208.269" y="-162.8" font-family="Times,serif" font-size="14.00">petal width (cm) &lt;= 1.75</text>
<text text-anchor="middle" x="208.269" y="-148.8" font-family="Times,serif" font-size="14.00">gini = 0.5</text>
<text text-anchor="middle" x="208.269" y="-134.8" font-family="Times,serif" font-size="14.00">samples = 100</text>
<text text-anchor="middle" x="208.269" y="-120.8" font-family="Times,serif" font-size="14.00">value = [0, 50, 50]</text>
<text text-anchor="middle" x="208.269" y="-106.8" font-family="Times,serif" font-size="14.00">class = versicolor</text>
</g>
<!-- 0&#45;&gt;2 -->
<g id="edge2" class="edge"><title>0&#45;&gt;2</title>
<path fill="none" stroke="black" d="M158.211,-213.769C164.142,-205.029 170.51,-195.645 176.649,-186.597"/>
<polygon fill="black" stroke="black" points="179.724,-188.299 182.443,-178.058 173.932,-184.368 179.724,-188.299"/>
<text text-anchor="middle" x="187.145" y="-198.412" font-family="Times,serif" font-size="14.00">False</text>
</g>
<!-- 3 -->
<g id="node4" class="node"><title>3</title>
<polygon fill="#39e581" fill-opacity="0.898039" stroke="black" points="199.357,-64 85.1797,-64 85.1797,-0 199.357,-0 199.357,-64"/>
<text text-anchor="middle" x="142.269" y="-48.8" font-family="Times,serif" font-size="14.00">gini = 0.168</text>
<text text-anchor="middle" x="142.269" y="-34.8" font-family="Times,serif" font-size="14.00">samples = 54</text>
<text text-anchor="middle" x="142.269" y="-20.8" font-family="Times,serif" font-size="14.00">value = [0, 49, 5]</text>
<text text-anchor="middle" x="142.269" y="-6.8" font-family="Times,serif" font-size="14.00">class = versicolor</text>
</g>
<!-- 2&#45;&gt;3 -->
<g id="edge3" class="edge"><title>2&#45;&gt;3</title>
<path fill="none" stroke="black" d="M184.254,-99.7956C178.726,-91 172.833,-81.625 167.264,-72.765"/>
<polygon fill="black" stroke="black" points="170.113,-70.7209 161.828,-64.1172 164.186,-74.4462 170.113,-70.7209"/>
</g>
<!-- 4 -->
<g id="node5" class="node"><title>4</title>
<polygon fill="#8139e5" fill-opacity="0.976471" stroke="black" points="329.307,-64 217.23,-64 217.23,-0 329.307,-0 329.307,-64"/>
<text text-anchor="middle" x="273.269" y="-48.8" font-family="Times,serif" font-size="14.00">gini = 0.043</text>
<text text-anchor="middle" x="273.269" y="-34.8" font-family="Times,serif" font-size="14.00">samples = 46</text>
<text text-anchor="middle" x="273.269" y="-20.8" font-family="Times,serif" font-size="14.00">value = [0, 1, 45]</text>
<text text-anchor="middle" x="273.269" y="-6.8" font-family="Times,serif" font-size="14.00">class = virginica</text>
</g>
<!-- 2&#45;&gt;4 -->
<g id="edge4" class="edge"><title>2&#45;&gt;4</title>
<path fill="none" stroke="black" d="M231.919,-99.7956C237.364,-91 243.167,-81.625 248.652,-72.765"/>
<polygon fill="black" stroke="black" points="251.718,-74.4621 254.006,-64.1172 245.766,-70.7776 251.718,-74.4621"/>
</g>
</g>
</svg>
