<?xml version="1.0" encoding="utf-8" standalone="no"?>
<!DOCTYPE svg PUBLIC "-//W3C//DTD SVG 1.1//EN"
  "http://www.w3.org/Graphics/SVG/1.1/DTD/svg11.dtd">
<!-- Created with matplotlib (http://matplotlib.org/) -->
<svg height="432pt" version="1.1" viewBox="0 0 657 432" width="657pt" xmlns="http://www.w3.org/2000/svg" xmlns:xlink="http://www.w3.org/1999/xlink">
 <defs>
  <style type="text/css">
*{stroke-linecap:butt;stroke-linejoin:round;}
  </style>
 </defs>
 <g id="figure_1">
  <g id="patch_1">
   <path d="M 0 432.87275 
L 657.825016 432.87275 
L 657.825016 0 
L 0 0 
z
" style="fill:none;"/>
  </g>
  <g id="axes_1">
   <g id="patch_2">
    <path d="M 66.805016 399.374 
L 647.125016 399.374 
L 647.125016 10.7 
L 66.805016 10.7 
z
" style="fill:#ffffff;"/>
   </g>
   <g id="patch_3">
    <path clip-path="url(#p1dbf895d9a)" d="M 93.183197 181.60641 
L 122.492288 181.60641 
L 122.492288 146.777913 
L 93.183197 146.777913 
z
" style="fill:#1f77b4;"/>
   </g>
   <g id="patch_4">
    <path clip-path="url(#p1dbf895d9a)" d="M 239.728652 181.60641 
L 269.037743 181.60641 
L 269.037743 56.696716 
L 239.728652 56.696716 
z
" style="fill:#1f77b4;"/>
   </g>
   <g id="patch_5">
    <path clip-path="url(#p1dbf895d9a)" d="M 386.274107 181.60641 
L 415.583197 181.60641 
L 415.583197 381.707 
L 386.274107 381.707 
z
" style="fill:#1f77b4;"/>
   </g>
   <g id="patch_6">
    <path clip-path="url(#p1dbf895d9a)" d="M 532.819561 181.60641 
L 562.128652 181.60641 
L 562.128652 271.685016 
L 532.819561 271.685016 
z
" style="fill:#1f77b4;"/>
   </g>
   <g id="patch_7">
    <path clip-path="url(#p1dbf895d9a)" d="M 122.492288 181.60641 
L 151.801379 181.60641 
L 151.801379 175.031753 
L 122.492288 175.031753 
z
" style="fill:#ff0000;"/>
   </g>
   <g id="patch_8">
    <path clip-path="url(#p1dbf895d9a)" d="M 269.037743 181.60641 
L 298.346834 181.60641 
L 298.346834 282.106326 
L 269.037743 282.106326 
z
" style="fill:#ff0000;"/>
   </g>
   <g id="patch_9">
    <path clip-path="url(#p1dbf895d9a)" d="M 415.583197 181.60641 
L 444.892288 181.60641 
L 444.892288 134.296847 
L 415.583197 134.296847 
z
" style="fill:#ff0000;"/>
   </g>
   <g id="patch_10">
    <path clip-path="url(#p1dbf895d9a)" d="M 562.128652 181.60641 
L 591.437743 181.60641 
L 591.437743 221.075585 
L 562.128652 221.075585 
z
" style="fill:#ff0000;"/>
   </g>
   <g id="patch_11">
    <path clip-path="url(#p1dbf895d9a)" d="M 151.801379 181.60641 
L 181.11047 181.60641 
L 181.11047 283.905459 
L 151.801379 283.905459 
z
" style="fill:#008000;"/>
   </g>
   <g id="patch_12">
    <path clip-path="url(#p1dbf895d9a)" d="M 298.346834 181.60641 
L 327.655925 181.60641 
L 327.655925 272.196348 
L 298.346834 272.196348 
z
" style="fill:#008000;"/>
   </g>
   <g id="patch_13">
    <path clip-path="url(#p1dbf895d9a)" d="M 444.892288 181.60641 
L 474.201379 181.60641 
L 474.201379 28.367 
L 444.892288 28.367 
z
" style="fill:#008000;"/>
   </g>
   <g id="patch_14">
    <path clip-path="url(#p1dbf895d9a)" d="M 591.437743 181.60641 
L 620.746834 181.60641 
L 620.746834 54.731927 
L 591.437743 54.731927 
z
" style="fill:#008000;"/>
   </g>
   <g id="matplotlib.axis_1">
    <g id="xtick_1">
     <g id="line2d_1">
      <defs>
       <path d="M 0 0 
L 0 3.5 
" id="me48efcda25" style="stroke:#000000;stroke-width:1.3;"/>
      </defs>
      <g>
       <use style="stroke:#000000;stroke-width:1.3;" x="151.801379" xlink:href="#me48efcda25" y="399.374"/>
      </g>
     </g>
     <g id="text_1">
      <!-- sepal length (cm) -->
      <defs>
       <path d="M 5.515625 11.671875 
Q 12.75 6.453125 21.09375 6.453125 
Q 32.28125 6.453125 32.28125 13.765625 
Q 32.28125 16.890625 29.828125 18.921875 
Q 27.390625 20.953125 19.921875 23.734375 
Q 10.9375 27.34375 8.25 30.875 
Q 5.5625 34.421875 5.5625 39.453125 
Q 5.5625 46.625 11.640625 50.953125 
Q 17.71875 55.28125 26.609375 55.28125 
Q 33.5 55.28125 39.40625 52.875 
L 39.40625 43.65625 
Q 33.34375 47.5625 25.6875 47.5625 
Q 21.09375 47.5625 18.203125 45.5625 
Q 15.328125 43.5625 15.328125 40.28125 
Q 15.328125 37.0625 17.40625 35.25 
Q 19.484375 33.453125 26.609375 30.609375 
Q 35.640625 27.25 38.8125 23.625 
Q 42 20.015625 42 14.703125 
Q 42 7.28125 35.90625 3 
Q 29.828125 -1.265625 20.171875 -1.265625 
Q 11.765625 -1.265625 5.515625 1.90625 
z
" id="MicrosoftYaHei-73"/>
       <path d="M 52.546875 24.5625 
L 14.75 24.5625 
Q 14.984375 15.921875 19.46875 11.203125 
Q 23.96875 6.5 32.03125 6.5 
Q 41.109375 6.5 48.6875 12.3125 
L 48.6875 3.765625 
Q 41.546875 -1.265625 29.78125 -1.265625 
Q 18.0625 -1.265625 11.5 6.15625 
Q 4.9375 13.578125 4.9375 26.765625 
Q 4.9375 39.15625 12.140625 47.21875 
Q 19.34375 55.28125 30.03125 55.28125 
Q 40.625 55.28125 46.578125 48.46875 
Q 52.546875 41.65625 52.546875 29.390625 
z
M 42.96875 32.234375 
Q 42.921875 39.546875 39.5 43.546875 
Q 36.078125 47.5625 29.890625 47.5625 
Q 24.171875 47.5625 20 43.3125 
Q 15.828125 39.0625 14.75 32.234375 
z
" id="MicrosoftYaHei-65"/>
       <path d="M 18.109375 7.625 
L 18.109375 -24.859375 
L 8.546875 -24.859375 
L 8.546875 54 
L 18.109375 54 
L 18.109375 44.671875 
L 18.3125 44.671875 
Q 24.65625 55.28125 36.859375 55.28125 
Q 47.21875 55.28125 53.09375 48.015625 
Q 58.984375 40.765625 58.984375 28.5625 
Q 58.984375 15.09375 52.3125 6.90625 
Q 45.65625 -1.265625 34.375 -1.265625 
Q 23.96875 -1.265625 18.3125 7.625 
z
M 18.0625 22.265625 
Q 18.0625 15.671875 22.3125 11.15625 
Q 26.5625 6.640625 32.953125 6.640625 
Q 40.578125 6.640625 44.875 12.5 
Q 49.171875 18.359375 49.171875 28.71875 
Q 49.171875 37.453125 45.15625 42.40625 
Q 41.15625 47.359375 34.234375 47.359375 
Q 27.15625 47.359375 22.609375 42.328125 
Q 18.0625 37.3125 18.0625 29.4375 
z
" id="MicrosoftYaHei-70"/>
       <path d="M 9.8125 50.25 
Q 17.875 55.28125 28.421875 55.28125 
Q 47.953125 55.28125 47.953125 34.765625 
L 47.953125 0 
L 38.484375 0 
L 38.484375 8.34375 
L 38.234375 8.34375 
Q 32.625 -1.265625 21.6875 -1.265625 
Q 13.8125 -1.265625 9.171875 2.984375 
Q 4.546875 7.234375 4.546875 14.453125 
Q 4.546875 29.59375 22.46875 32.078125 
L 38.484375 34.328125 
Q 38.484375 47.5625 27.546875 47.5625 
Q 17.828125 47.5625 9.8125 41.015625 
z
M 25.828125 25.390625 
Q 19.1875 24.515625 16.671875 22.0625 
Q 14.15625 19.625 14.15625 15.234375 
Q 14.15625 11.375 16.890625 8.9375 
Q 19.625 6.5 24.125 6.5 
Q 30.375 6.5 34.421875 10.890625 
Q 38.484375 15.28125 38.484375 21.921875 
L 38.484375 27.09375 
z
" id="MicrosoftYaHei-61"/>
       <path d="M 8.5 0 
L 8.5 79.9375 
L 18.0625 79.9375 
L 18.0625 0 
z
" id="MicrosoftYaHei-6c"/>
       <path id="MicrosoftYaHei-20"/>
       <path d="M 54.203125 0 
L 44.671875 0 
L 44.671875 30.71875 
Q 44.671875 47.359375 32.515625 47.359375 
Q 26.21875 47.359375 22.15625 42.671875 
Q 18.109375 37.984375 18.109375 30.8125 
L 18.109375 0 
L 8.546875 0 
L 8.546875 54 
L 18.109375 54 
L 18.109375 45.0625 
L 18.3125 45.0625 
Q 24.421875 55.28125 36.03125 55.28125 
Q 44.921875 55.28125 49.5625 49.578125 
Q 54.203125 43.890625 54.203125 33.015625 
z
" id="MicrosoftYaHei-6e"/>
       <path d="M 55.421875 4.546875 
Q 55.421875 -25.4375 26.3125 -25.4375 
Q 16.265625 -25.4375 8.84375 -21.6875 
L 8.84375 -12.453125 
Q 17.875 -17.484375 26.171875 -17.484375 
Q 45.84375 -17.484375 45.84375 3.21875 
L 45.84375 8.9375 
L 45.65625 8.9375 
Q 39.5 -1.265625 27.296875 -1.265625 
Q 17.140625 -1.265625 11.03125 6 
Q 4.9375 13.28125 4.9375 25.296875 
Q 4.9375 39.109375 11.671875 47.1875 
Q 18.40625 55.28125 29.640625 55.28125 
Q 40.4375 55.28125 45.65625 46.6875 
L 45.84375 46.6875 
L 45.84375 54 
L 55.421875 54 
z
M 45.84375 32.125 
Q 45.90625 38.375 41.65625 42.859375 
Q 37.40625 47.359375 31.203125 47.359375 
Q 23.390625 47.359375 19.046875 41.625 
Q 14.703125 35.890625 14.703125 25.875 
Q 14.703125 17.28125 18.890625 11.953125 
Q 23.09375 6.640625 30.03125 6.640625 
Q 37.015625 6.640625 41.453125 11.71875 
Q 45.90625 16.796875 45.84375 24.609375 
z
" id="MicrosoftYaHei-67"/>
       <path d="M 34.46875 0.53125 
Q 31.34375 -1.171875 26.03125 -1.171875 
Q 11.53125 -1.171875 11.53125 14.890625 
L 11.53125 46.09375 
L 2.25 46.09375 
L 2.25 54 
L 11.53125 54 
L 11.53125 67 
L 21.046875 70.015625 
L 21.046875 54 
L 34.46875 54 
L 34.46875 46.09375 
L 21.046875 46.09375 
L 21.046875 16.609375 
Q 21.046875 11.28125 22.84375 8.984375 
Q 24.65625 6.6875 28.859375 6.6875 
Q 32.078125 6.6875 34.46875 8.5 
z
" id="MicrosoftYaHei-74"/>
       <path d="M 54.15625 0 
L 44.625 0 
L 44.625 31.0625 
Q 44.625 47.359375 32.515625 47.359375 
Q 26.3125 47.359375 22.203125 42.59375 
Q 18.109375 37.84375 18.109375 30.609375 
L 18.109375 0 
L 8.546875 0 
L 8.546875 79.9375 
L 18.109375 79.9375 
L 18.109375 45.125 
L 18.3125 45.125 
Q 24.515625 55.28125 35.9375 55.28125 
Q 54.15625 55.28125 54.15625 33.25 
z
" id="MicrosoftYaHei-68"/>
       <path d="M 23.921875 -17.1875 
Q 7.46875 1.5625 7.46875 28.859375 
Q 7.46875 56.15625 23.921875 75.640625 
L 32.375 75.640625 
Q 15.875 55.375 15.875 28.953125 
Q 15.875 2.59375 32.28125 -17.1875 
z
" id="MicrosoftYaHei-28"/>
       <path d="M 45.84375 2.4375 
Q 39.65625 -1.265625 30.90625 -1.265625 
Q 19.1875 -1.265625 12.0625 6.25 
Q 4.9375 13.765625 4.9375 25.734375 
Q 4.9375 39.015625 12.625 47.140625 
Q 20.3125 55.28125 33.203125 55.28125 
Q 40.625 55.28125 45.90625 52.640625 
L 45.90625 43.171875 
Q 40.1875 47.359375 33.203125 47.359375 
Q 25 47.359375 19.84375 41.671875 
Q 14.703125 35.984375 14.703125 26.515625 
Q 14.703125 17.1875 19.5625 11.90625 
Q 24.421875 6.640625 32.671875 6.640625 
Q 39.65625 6.640625 45.84375 11.234375 
z
" id="MicrosoftYaHei-63"/>
       <path d="M 86.28125 0 
L 76.703125 0 
L 76.703125 31 
Q 76.703125 39.796875 73.96875 43.578125 
Q 71.234375 47.359375 64.984375 47.359375 
Q 59.71875 47.359375 55.953125 42.421875 
Q 52.203125 37.5 52.203125 30.765625 
L 52.203125 0 
L 42.625 0 
L 42.625 31.984375 
Q 42.625 47.359375 30.765625 47.359375 
Q 25.296875 47.359375 21.703125 42.671875 
Q 18.109375 37.984375 18.109375 30.71875 
L 18.109375 0 
L 8.546875 0 
L 8.546875 54 
L 18.109375 54 
L 18.109375 45.453125 
L 18.3125 45.453125 
Q 24.078125 55.28125 35.15625 55.28125 
Q 40.578125 55.28125 44.71875 52.296875 
Q 48.875 49.3125 50.484375 44.234375 
Q 56.5 55.28125 68.453125 55.28125 
Q 86.28125 55.28125 86.28125 33.296875 
z
" id="MicrosoftYaHei-6d"/>
       <path d="M 1.21875 -17.1875 
Q 17.671875 2.546875 17.671875 28.953125 
Q 17.671875 55.421875 1.125 75.640625 
L 9.625 75.640625 
Q 26.125 56.296875 26.125 28.859375 
Q 26.125 1.421875 9.625 -17.1875 
z
" id="MicrosoftYaHei-29"/>
      </defs>
      <g transform="translate(98.085989 422.365875)scale(0.13 -0.13)">
       <use xlink:href="#MicrosoftYaHei-73"/>
       <use x="46.289062" xlink:href="#MicrosoftYaHei-65"/>
       <use x="103.027344" xlink:href="#MicrosoftYaHei-70"/>
       <use x="166.878906" xlink:href="#MicrosoftYaHei-61"/>
       <use x="222.152344" xlink:href="#MicrosoftYaHei-6c"/>
       <use x="248.763672" xlink:href="#MicrosoftYaHei-20"/>
       <use x="278.353516" xlink:href="#MicrosoftYaHei-6c"/>
       <use x="304.964844" xlink:href="#MicrosoftYaHei-65"/>
       <use x="361.703125" xlink:href="#MicrosoftYaHei-6e"/>
       <use x="423.324219" xlink:href="#MicrosoftYaHei-67"/>
       <use x="487.289062" xlink:href="#MicrosoftYaHei-74"/>
       <use x="524.544922" xlink:href="#MicrosoftYaHei-68"/>
       <use x="586.117188" xlink:href="#MicrosoftYaHei-20"/>
       <use x="615.707031" xlink:href="#MicrosoftYaHei-28"/>
       <use x="649.105469" xlink:href="#MicrosoftYaHei-63"/>
       <use x="699.251953" xlink:href="#MicrosoftYaHei-6d"/>
       <use x="792.953125" xlink:href="#MicrosoftYaHei-29"/>
      </g>
     </g>
    </g>
    <g id="xtick_2">
     <g id="line2d_2">
      <g>
       <use style="stroke:#000000;stroke-width:1.3;" x="298.346834" xlink:href="#me48efcda25" y="399.374"/>
      </g>
     </g>
     <g id="text_2">
      <!-- sepal width (cm) -->
      <defs>
       <path d="M 77.734375 54 
L 61.625 0 
L 51.65625 0 
L 40.921875 37.890625 
Q 40.234375 40.328125 40.046875 43.0625 
L 39.84375 43.0625 
Q 39.703125 41.015625 38.71875 37.984375 
L 27.09375 0 
L 17.4375 0 
L 1.21875 54 
L 11.1875 54 
L 21.96875 13.96875 
Q 22.46875 12.15625 22.703125 9.03125 
L 23.09375 9.03125 
Q 23.296875 11.71875 24.03125 14.109375 
L 35.640625 54 
L 44.484375 54 
L 55.8125 13.921875 
Q 56.296875 12.15625 56.59375 8.9375 
L 57.03125 8.9375 
Q 57.125 11.078125 57.90625 13.921875 
L 68.453125 54 
z
" id="MicrosoftYaHei-77"/>
       <path d="M 7.375 73.046875 
Q 7.375 75.59375 9.109375 77.3125 
Q 10.84375 79.046875 13.375 79.046875 
Q 15.96875 79.046875 17.75 77.34375 
Q 19.53125 75.640625 19.53125 73.046875 
Q 19.53125 70.515625 17.75 68.828125 
Q 15.96875 67.140625 13.375 67.140625 
Q 10.796875 67.140625 9.078125 68.828125 
Q 7.375 70.515625 7.375 73.046875 
z
M 8.5 0 
L 8.5 54 
L 18.0625 54 
L 18.0625 0 
z
" id="MicrosoftYaHei-69"/>
       <path d="M 55.421875 0 
L 45.84375 0 
L 45.84375 8.984375 
L 45.65625 8.984375 
Q 39.75 -1.265625 27.296875 -1.265625 
Q 17.046875 -1.265625 10.984375 6.03125 
Q 4.9375 13.328125 4.9375 25.734375 
Q 4.9375 39.109375 11.765625 47.1875 
Q 18.609375 55.28125 29.640625 55.28125 
Q 40.671875 55.28125 45.65625 46.6875 
L 45.84375 46.6875 
L 45.84375 79.9375 
L 55.421875 79.9375 
z
M 45.90625 32.125 
Q 45.90625 38.625 41.625 42.984375 
Q 37.359375 47.359375 31.109375 47.359375 
Q 23.484375 47.359375 19.09375 41.671875 
Q 14.703125 35.984375 14.703125 26.171875 
Q 14.703125 17.140625 18.921875 11.890625 
Q 23.140625 6.640625 30.171875 6.640625 
Q 37.109375 6.640625 41.5 11.78125 
Q 45.90625 16.9375 45.90625 24.609375 
z
" id="MicrosoftYaHei-64"/>
      </defs>
      <g transform="translate(247.192849 422.365875)scale(0.13 -0.13)">
       <use xlink:href="#MicrosoftYaHei-73"/>
       <use x="46.289062" xlink:href="#MicrosoftYaHei-65"/>
       <use x="103.027344" xlink:href="#MicrosoftYaHei-70"/>
       <use x="166.878906" xlink:href="#MicrosoftYaHei-61"/>
       <use x="222.152344" xlink:href="#MicrosoftYaHei-6c"/>
       <use x="248.763672" xlink:href="#MicrosoftYaHei-20"/>
       <use x="278.353516" xlink:href="#MicrosoftYaHei-77"/>
       <use x="357.308594" xlink:href="#MicrosoftYaHei-69"/>
       <use x="383.919922" xlink:href="#MicrosoftYaHei-64"/>
       <use x="447.884766" xlink:href="#MicrosoftYaHei-74"/>
       <use x="485.140625" xlink:href="#MicrosoftYaHei-68"/>
       <use x="546.712891" xlink:href="#MicrosoftYaHei-20"/>
       <use x="576.302734" xlink:href="#MicrosoftYaHei-28"/>
       <use x="609.701172" xlink:href="#MicrosoftYaHei-63"/>
       <use x="659.847656" xlink:href="#MicrosoftYaHei-6d"/>
       <use x="753.548828" xlink:href="#MicrosoftYaHei-29"/>
      </g>
     </g>
    </g>
    <g id="xtick_3">
     <g id="line2d_3">
      <g>
       <use style="stroke:#000000;stroke-width:1.3;" x="444.892288" xlink:href="#me48efcda25" y="399.374"/>
      </g>
     </g>
     <g id="text_3">
      <!-- petal length (cm) -->
      <g transform="translate(391.763929 422.365875)scale(0.13 -0.13)">
       <use xlink:href="#MicrosoftYaHei-70"/>
       <use x="63.867188" xlink:href="#MicrosoftYaHei-65"/>
       <use x="120.605469" xlink:href="#MicrosoftYaHei-74"/>
       <use x="157.861328" xlink:href="#MicrosoftYaHei-61"/>
       <use x="213.134766" xlink:href="#MicrosoftYaHei-6c"/>
       <use x="239.746094" xlink:href="#MicrosoftYaHei-20"/>
       <use x="269.335938" xlink:href="#MicrosoftYaHei-6c"/>
       <use x="295.947266" xlink:href="#MicrosoftYaHei-65"/>
       <use x="352.685547" xlink:href="#MicrosoftYaHei-6e"/>
       <use x="414.306641" xlink:href="#MicrosoftYaHei-67"/>
       <use x="478.271484" xlink:href="#MicrosoftYaHei-74"/>
       <use x="515.527344" xlink:href="#MicrosoftYaHei-68"/>
       <use x="577.099609" xlink:href="#MicrosoftYaHei-20"/>
       <use x="606.689453" xlink:href="#MicrosoftYaHei-28"/>
       <use x="640.087891" xlink:href="#MicrosoftYaHei-63"/>
       <use x="690.234375" xlink:href="#MicrosoftYaHei-6d"/>
       <use x="783.935547" xlink:href="#MicrosoftYaHei-29"/>
      </g>
     </g>
    </g>
    <g id="xtick_4">
     <g id="line2d_4">
      <g>
       <use style="stroke:#000000;stroke-width:1.3;" x="591.437743" xlink:href="#me48efcda25" y="399.374"/>
      </g>
     </g>
     <g id="text_4">
      <!-- petal width (cm) -->
      <g transform="translate(540.87079 422.365875)scale(0.13 -0.13)">
       <use xlink:href="#MicrosoftYaHei-70"/>
       <use x="63.867188" xlink:href="#MicrosoftYaHei-65"/>
       <use x="120.605469" xlink:href="#MicrosoftYaHei-74"/>
       <use x="157.861328" xlink:href="#MicrosoftYaHei-61"/>
       <use x="213.134766" xlink:href="#MicrosoftYaHei-6c"/>
       <use x="239.746094" xlink:href="#MicrosoftYaHei-20"/>
       <use x="269.335938" xlink:href="#MicrosoftYaHei-77"/>
       <use x="348.291016" xlink:href="#MicrosoftYaHei-69"/>
       <use x="374.902344" xlink:href="#MicrosoftYaHei-64"/>
       <use x="438.867188" xlink:href="#MicrosoftYaHei-74"/>
       <use x="476.123047" xlink:href="#MicrosoftYaHei-68"/>
       <use x="537.695312" xlink:href="#MicrosoftYaHei-20"/>
       <use x="567.285156" xlink:href="#MicrosoftYaHei-28"/>
       <use x="600.683594" xlink:href="#MicrosoftYaHei-63"/>
       <use x="650.830078" xlink:href="#MicrosoftYaHei-6d"/>
       <use x="744.53125" xlink:href="#MicrosoftYaHei-29"/>
      </g>
     </g>
    </g>
   </g>
   <g id="matplotlib.axis_2">
    <g id="ytick_1">
     <g id="line2d_5">
      <defs>
       <path d="M 0 0 
L -3.5 0 
" id="m581d9081a3" style="stroke:#000000;stroke-width:1.3;"/>
      </defs>
      <g>
       <use style="stroke:#000000;stroke-width:1.3;" x="66.805016" xlink:href="#m581d9081a3" y="342.879109"/>
      </g>
     </g>
     <g id="text_5">
      <!-- −1.0 -->
      <defs>
       <path d="M 62.0625 27.6875 
L 12.3125 27.6875 
L 12.3125 35.15625 
L 62.0625 35.15625 
z
" id="MicrosoftYaHei-2212"/>
       <path d="M 52.59375 0 
L 9.234375 0 
L 9.234375 8.25 
L 26.171875 8.25 
L 26.171875 65.671875 
L 8.796875 60.640625 
L 8.796875 69.4375 
L 35.6875 77.25 
L 35.6875 8.25 
L 52.59375 8.25 
z
" id="MicrosoftYaHei-31"/>
       <path d="M 5.8125 5.03125 
Q 5.8125 7.671875 7.609375 9.46875 
Q 9.421875 11.28125 12.109375 11.28125 
Q 14.84375 11.28125 16.640625 9.453125 
Q 18.453125 7.625 18.453125 5.03125 
Q 18.453125 2.484375 16.640625 0.65625 
Q 14.84375 -1.171875 12.0625 -1.171875 
Q 9.375 -1.171875 7.59375 0.65625 
Q 5.8125 2.484375 5.8125 5.03125 
z
" id="MicrosoftYaHei-2e"/>
       <path d="M 4.4375 36.328125 
Q 4.4375 56.34375 11.078125 66.625 
Q 17.71875 76.90625 30.328125 76.90625 
Q 54.34375 76.90625 54.34375 38.140625 
Q 54.34375 19 47.578125 8.859375 
Q 40.828125 -1.265625 28.609375 -1.265625 
Q 17.09375 -1.265625 10.765625 8.34375 
Q 4.4375 17.96875 4.4375 36.328125 
z
M 14.203125 36.765625 
Q 14.203125 6.640625 29.5 6.640625 
Q 44.53125 6.640625 44.53125 37.25 
Q 44.53125 68.953125 29.78125 68.953125 
Q 14.203125 68.953125 14.203125 36.765625 
z
" id="MicrosoftYaHei-30"/>
      </defs>
      <g transform="translate(26.185953 348.075046)scale(0.13 -0.13)">
       <use xlink:href="#MicrosoftYaHei-2212"/>
       <use x="74.169922" xlink:href="#MicrosoftYaHei-31"/>
       <use x="132.8125" xlink:href="#MicrosoftYaHei-2e"/>
       <use x="156.884766" xlink:href="#MicrosoftYaHei-30"/>
      </g>
     </g>
    </g>
    <g id="ytick_2">
     <g id="line2d_6">
      <g>
       <use style="stroke:#000000;stroke-width:1.3;" x="66.805016" xlink:href="#m581d9081a3" y="262.242759"/>
      </g>
     </g>
     <g id="text_6">
      <!-- −0.5 -->
      <defs>
       <path d="M 8.640625 11.625 
Q 16.265625 6.640625 24.515625 6.640625 
Q 32.328125 6.640625 37.109375 11 
Q 41.890625 15.375 41.890625 22.609375 
Q 41.890625 29.890625 37.03125 33.890625 
Q 32.171875 37.890625 22.953125 37.890625 
Q 18.5 37.890625 10.984375 37.203125 
L 10.984375 75.640625 
L 48.1875 75.640625 
L 48.1875 67.1875 
L 19.875 67.1875 
L 19.875 45.796875 
Q 24.125 46.046875 26.265625 46.046875 
Q 38.234375 46.046875 44.921875 39.984375 
Q 51.609375 33.9375 51.609375 23.296875 
Q 51.609375 12.3125 44.421875 5.515625 
Q 37.25 -1.265625 24.609375 -1.265625 
Q 14.015625 -1.265625 8.640625 1.859375 
z
" id="MicrosoftYaHei-35"/>
      </defs>
      <g transform="translate(26.185953 267.438697)scale(0.13 -0.13)">
       <use xlink:href="#MicrosoftYaHei-2212"/>
       <use x="74.169922" xlink:href="#MicrosoftYaHei-30"/>
       <use x="132.8125" xlink:href="#MicrosoftYaHei-2e"/>
       <use x="156.884766" xlink:href="#MicrosoftYaHei-35"/>
      </g>
     </g>
    </g>
    <g id="ytick_3">
     <g id="line2d_7">
      <g>
       <use style="stroke:#000000;stroke-width:1.3;" x="66.805016" xlink:href="#m581d9081a3" y="181.60641"/>
      </g>
     </g>
     <g id="text_7">
      <!-- 0.0 -->
      <g transform="translate(35.828297 186.802347)scale(0.13 -0.13)">
       <use xlink:href="#MicrosoftYaHei-30"/>
       <use x="58.642578" xlink:href="#MicrosoftYaHei-2e"/>
       <use x="82.714844" xlink:href="#MicrosoftYaHei-30"/>
      </g>
     </g>
    </g>
    <g id="ytick_4">
     <g id="line2d_8">
      <g>
       <use style="stroke:#000000;stroke-width:1.3;" x="66.805016" xlink:href="#m581d9081a3" y="100.97006"/>
      </g>
     </g>
     <g id="text_8">
      <!-- 0.5 -->
      <g transform="translate(35.828297 106.165998)scale(0.13 -0.13)">
       <use xlink:href="#MicrosoftYaHei-30"/>
       <use x="58.642578" xlink:href="#MicrosoftYaHei-2e"/>
       <use x="82.714844" xlink:href="#MicrosoftYaHei-35"/>
      </g>
     </g>
    </g>
    <g id="ytick_5">
     <g id="line2d_9">
      <g>
       <use style="stroke:#000000;stroke-width:1.3;" x="66.805016" xlink:href="#m581d9081a3" y="20.333711"/>
      </g>
     </g>
     <g id="text_9">
      <!-- 1.0 -->
      <g transform="translate(35.828297 25.529648)scale(0.13 -0.13)">
       <use xlink:href="#MicrosoftYaHei-31"/>
       <use x="58.642578" xlink:href="#MicrosoftYaHei-2e"/>
       <use x="82.714844" xlink:href="#MicrosoftYaHei-30"/>
      </g>
     </g>
    </g>
    <g id="text_10">
     <!-- 权重 -->
     <defs>
      <path d="M 36.421875 69 
L 36.421875 76.3125 
L 91.890625 76.3125 
L 91.890625 69.1875 
Q 87.3125 35.203125 71.1875 14.40625 
Q 81.734375 3.765625 99.125 -3.171875 
Q 94.921875 -7.765625 92.578125 -11.28125 
Q 75.78125 -2.59375 65.828125 8.0625 
Q 54.6875 -3.5625 34.765625 -13.625 
Q 32.625 -10.109375 29.296875 -6.203125 
Q 49.90625 3.46875 60.75 14.3125 
Q 46 32.859375 42.484375 69 
z
M 0.984375 21.046875 
Q 10.9375 36.28125 15.921875 55.125 
L 1.953125 55.125 
L 1.953125 61.96875 
L 17.1875 61.96875 
L 17.1875 82.671875 
L 24.609375 82.671875 
L 24.609375 61.96875 
L 38.375 61.96875 
L 38.375 55.125 
L 24.609375 55.125 
L 24.609375 42.234375 
L 28.8125 46.140625 
Q 37.59375 37.84375 42.96875 31.390625 
L 37.109375 25.921875 
Q 30.5625 34.234375 24.609375 40.484375 
L 24.609375 -13.328125 
L 17.1875 -13.328125 
L 17.1875 40.1875 
Q 11.921875 23.78125 4.296875 12.453125 
Q 2.9375 16.65625 0.984375 21.046875 
z
M 83.59375 69 
L 50.296875 69 
Q 53.21875 37.453125 66.015625 20.453125 
Q 79.5 38.53125 83.59375 69 
z
" id="MicrosoftYaHei-6743"/>
      <path d="M 1.765625 -3.171875 
L 46.484375 -3.171875 
L 46.484375 4.046875 
L 9.375 4.046875 
L 9.375 9.8125 
L 46.484375 9.8125 
L 46.484375 18.015625 
L 20.125 18.015625 
L 20.125 14.5 
L 13.28125 14.5 
L 13.28125 51.21875 
L 46.484375 51.21875 
L 46.484375 58.25 
L 2.546875 58.25 
L 2.546875 64.3125 
L 46.484375 64.3125 
L 46.484375 71.96875 
Q 28.765625 71.4375 9.765625 71.046875 
Q 9.1875 74.171875 8.40625 77.6875 
Q 57.90625 78.265625 88.578125 80.328125 
L 89.75 73.6875 
Q 72.359375 72.859375 53.515625 72.171875 
L 53.515625 64.3125 
L 97.859375 64.3125 
L 97.859375 58.25 
L 53.515625 58.25 
L 53.515625 51.21875 
L 87.015625 51.21875 
L 87.015625 14.59375 
L 80.171875 14.59375 
L 80.171875 18.015625 
L 53.515625 18.015625 
L 53.515625 9.8125 
L 90.71875 9.8125 
L 90.71875 4.046875 
L 53.515625 4.046875 
L 53.515625 -3.171875 
L 97.859375 -3.171875 
L 97.859375 -9.234375 
L 1.765625 -9.234375 
z
M 53.515625 23.6875 
L 80.171875 23.6875 
L 80.171875 32.078125 
L 53.515625 32.078125 
z
M 20.125 23.6875 
L 46.484375 23.6875 
L 46.484375 32.078125 
L 20.125 32.078125 
z
M 80.171875 45.5625 
L 53.515625 45.5625 
L 53.515625 37.25 
L 80.171875 37.25 
z
M 20.125 37.25 
L 46.484375 37.25 
L 46.484375 45.5625 
L 20.125 45.5625 
z
" id="MicrosoftYaHei-91cd"/>
     </defs>
     <g transform="translate(18.631062 219.337)rotate(-90)scale(0.143 -0.143)">
      <use xlink:href="#MicrosoftYaHei-6743"/>
      <use x="100" xlink:href="#MicrosoftYaHei-91cd"/>
     </g>
    </g>
   </g>
   <g id="patch_15">
    <path d="M 66.805016 399.374 
L 66.805016 10.7 
" style="fill:none;stroke:#000000;stroke-linecap:square;stroke-linejoin:miter;stroke-width:0.8;"/>
   </g>
   <g id="patch_16">
    <path d="M 647.125016 399.374 
L 647.125016 10.7 
" style="fill:none;stroke:#000000;stroke-linecap:square;stroke-linejoin:miter;stroke-width:0.8;"/>
   </g>
   <g id="patch_17">
    <path d="M 66.805016 399.374 
L 647.125016 399.374 
" style="fill:none;stroke:#000000;stroke-linecap:square;stroke-linejoin:miter;stroke-width:0.8;"/>
   </g>
   <g id="patch_18">
    <path d="M 66.805016 10.7 
L 647.125016 10.7 
" style="fill:none;stroke:#000000;stroke-linecap:square;stroke-linejoin:miter;stroke-width:0.8;"/>
   </g>
   <g id="legend_1">
    <g id="patch_19">
     <path d="M 75.905016 81.545937 
L 177.617828 81.545937 
Q 180.217828 81.545937 180.217828 78.945937 
L 180.217828 19.8 
Q 180.217828 17.2 177.617828 17.2 
L 75.905016 17.2 
Q 73.305016 17.2 73.305016 19.8 
L 73.305016 78.945937 
Q 73.305016 81.545937 75.905016 81.545937 
z
" style="fill:#ffffff;opacity:0.8;stroke:#cccccc;stroke-linejoin:miter;stroke-width:0.39;"/>
    </g>
    <g id="patch_20">
     <path d="M 78.505016 32.791875 
L 104.505016 32.791875 
L 104.505016 23.691875 
L 78.505016 23.691875 
z
" style="fill:#1f77b4;"/>
    </g>
    <g id="text_11">
     <!-- setosa -->
     <defs>
      <path d="M 4.9375 26.421875 
Q 4.9375 39.796875 12.40625 47.53125 
Q 19.875 55.28125 32.671875 55.28125 
Q 44.828125 55.28125 51.734375 47.828125 
Q 58.640625 40.375 58.640625 27.25 
Q 58.640625 14.453125 51.265625 6.59375 
Q 43.890625 -1.265625 31.5 -1.265625 
Q 19.390625 -1.265625 12.15625 6.34375 
Q 4.9375 13.96875 4.9375 26.421875 
z
M 14.703125 26.703125 
Q 14.703125 17.390625 19.40625 12.015625 
Q 24.125 6.640625 32.078125 6.640625 
Q 40.28125 6.640625 44.578125 11.890625 
Q 48.875 17.140625 48.875 26.953125 
Q 48.875 36.8125 44.578125 42.078125 
Q 40.28125 47.359375 32.078125 47.359375 
Q 24.03125 47.359375 19.359375 41.84375 
Q 14.703125 36.328125 14.703125 26.703125 
z
" id="MicrosoftYaHei-6f"/>
     </defs>
     <g transform="translate(114.905016 32.791875)scale(0.13 -0.13)">
      <use xlink:href="#MicrosoftYaHei-73"/>
      <use x="46.289062" xlink:href="#MicrosoftYaHei-65"/>
      <use x="103.027344" xlink:href="#MicrosoftYaHei-74"/>
      <use x="140.283203" xlink:href="#MicrosoftYaHei-6f"/>
      <use x="203.857422" xlink:href="#MicrosoftYaHei-73"/>
      <use x="250.146484" xlink:href="#MicrosoftYaHei-61"/>
     </g>
    </g>
    <g id="patch_21">
     <path d="M 78.505016 52.915469 
L 104.505016 52.915469 
L 104.505016 43.815469 
L 78.505016 43.815469 
z
" style="fill:#ff0000;"/>
    </g>
    <g id="text_12">
     <!-- versicolor -->
     <defs>
      <path d="M 52.046875 54 
L 30.671875 0 
L 21 0 
L 0.6875 54 
L 11.140625 54 
L 24.3125 15.4375 
Q 25.921875 10.796875 26.21875 7.671875 
L 26.46875 7.671875 
Q 26.953125 11.765625 28.171875 15.234375 
L 42 54 
z
" id="MicrosoftYaHei-76"/>
      <path d="M 37.5 44.53125 
Q 35.109375 46.234375 30.90625 46.234375 
Q 25.34375 46.234375 21.71875 41.03125 
Q 18.109375 35.84375 18.109375 27.34375 
L 18.109375 0 
L 8.546875 0 
L 8.546875 54 
L 18.109375 54 
L 18.109375 43.015625 
L 18.3125 43.015625 
Q 22.40625 54.9375 32.46875 54.9375 
Q 35.75 54.9375 37.5 54.203125 
z
" id="MicrosoftYaHei-72"/>
     </defs>
     <g transform="translate(114.905016 52.915469)scale(0.13 -0.13)">
      <use xlink:href="#MicrosoftYaHei-76"/>
      <use x="52.490234" xlink:href="#MicrosoftYaHei-65"/>
      <use x="109.228516" xlink:href="#MicrosoftYaHei-72"/>
      <use x="147.412109" xlink:href="#MicrosoftYaHei-73"/>
      <use x="193.701172" xlink:href="#MicrosoftYaHei-69"/>
      <use x="220.3125" xlink:href="#MicrosoftYaHei-63"/>
      <use x="270.458984" xlink:href="#MicrosoftYaHei-6f"/>
      <use x="334.033203" xlink:href="#MicrosoftYaHei-6c"/>
      <use x="360.644531" xlink:href="#MicrosoftYaHei-6f"/>
      <use x="424.21875" xlink:href="#MicrosoftYaHei-72"/>
     </g>
    </g>
    <g id="patch_22">
     <path d="M 78.505016 73.039062 
L 104.505016 73.039062 
L 104.505016 63.939062 
L 78.505016 63.939062 
z
" style="fill:#008000;"/>
    </g>
    <g id="text_13">
     <!-- virginica -->
     <g transform="translate(114.905016 73.039062)scale(0.13 -0.13)">
      <use xlink:href="#MicrosoftYaHei-76"/>
      <use x="52.490234" xlink:href="#MicrosoftYaHei-69"/>
      <use x="79.101562" xlink:href="#MicrosoftYaHei-72"/>
      <use x="117.269531" xlink:href="#MicrosoftYaHei-67"/>
      <use x="181.234375" xlink:href="#MicrosoftYaHei-69"/>
      <use x="207.845703" xlink:href="#MicrosoftYaHei-6e"/>
      <use x="269.466797" xlink:href="#MicrosoftYaHei-69"/>
      <use x="296.078125" xlink:href="#MicrosoftYaHei-63"/>
      <use x="346.224609" xlink:href="#MicrosoftYaHei-61"/>
     </g>
    </g>
   </g>
  </g>
 </g>
 <defs>
  <clipPath id="p1dbf895d9a">
   <rect height="388.674" width="580.32" x="66.805016" y="10.7"/>
  </clipPath>
 </defs>
</svg>
