<?xml version="1.0" encoding="utf-8" standalone="no"?>
<!DOCTYPE svg PUBLIC "-//W3C//DTD SVG 1.1//EN"
  "http://www.w3.org/Graphics/SVG/1.1/DTD/svg11.dtd">
<!-- Created with matplotlib (http://matplotlib.org/) -->
<svg height="267pt" version="1.1" viewBox="0 0 394 267" width="394pt" xmlns="http://www.w3.org/2000/svg" xmlns:xlink="http://www.w3.org/1999/xlink">
 <defs>
  <style type="text/css">
*{stroke-linecap:butt;stroke-linejoin:round;}
  </style>
 </defs>
 <g id="figure_1">
  <g id="patch_1">
   <path d="M 0 267.299375 
L 394.179687 267.299375 
L 394.179687 0 
L 0 0 
z
" style="fill:none;"/>
  </g>
  <g id="axes_1">
   <g id="patch_2">
    <path d="M 48.679688 228.14 
L 383.479688 228.14 
L 383.479688 10.7 
L 48.679688 10.7 
z
" style="fill:#ffffff;"/>
   </g>
   <g id="matplotlib.axis_1">
    <g id="xtick_1">
     <g id="line2d_1">
      <defs>
       <path d="M 0 0 
L 0 3.5 
" id="m3d42f4eeb6" style="stroke:#000000;stroke-width:0.8;"/>
      </defs>
      <g>
       <use style="stroke:#000000;stroke-width:0.8;" x="63.897869" xlink:href="#m3d42f4eeb6" y="228.14"/>
      </g>
     </g>
     <g id="text_1">
      <!-- 1 -->
      <defs>
       <path d="M 52.59375 0 
L 9.234375 0 
L 9.234375 8.25 
L 26.171875 8.25 
L 26.171875 65.671875 
L 8.796875 60.640625 
L 8.796875 69.4375 
L 35.6875 77.25 
L 35.6875 8.25 
L 52.59375 8.25 
z
" id="MicrosoftYaHei-31"/>
      </defs>
      <g transform="translate(60.965838 243.13375)scale(0.1 -0.1)">
       <use xlink:href="#MicrosoftYaHei-31"/>
      </g>
     </g>
    </g>
    <g id="xtick_2">
     <g id="line2d_2">
      <g>
       <use style="stroke:#000000;stroke-width:0.8;" x="101.943324" xlink:href="#m3d42f4eeb6" y="228.14"/>
      </g>
     </g>
     <g id="text_2">
      <!-- 2 -->
      <defs>
       <path d="M 51.171875 0 
L 5.171875 0 
L 5.171875 8.296875 
L 27.15625 30.21875 
Q 36.234375 39.3125 39.3125 44.609375 
Q 42.390625 49.90625 42.390625 55.5625 
Q 42.390625 62.015625 38.765625 65.453125 
Q 35.15625 68.890625 28.328125 68.890625 
Q 18.21875 68.890625 9.03125 60.296875 
L 9.03125 70.015625 
Q 17.96875 76.90625 29.828125 76.90625 
Q 40.046875 76.90625 45.953125 71.390625 
Q 51.859375 65.875 51.859375 56.546875 
Q 51.859375 49.515625 48.0625 42.75 
Q 44.28125 35.984375 33.734375 25.53125 
L 16.5 8.6875 
L 16.5 8.5 
L 51.171875 8.5 
z
" id="MicrosoftYaHei-32"/>
      </defs>
      <g transform="translate(99.011293 243.13375)scale(0.1 -0.1)">
       <use xlink:href="#MicrosoftYaHei-32"/>
      </g>
     </g>
    </g>
    <g id="xtick_3">
     <g id="line2d_3">
      <g>
       <use style="stroke:#000000;stroke-width:0.8;" x="139.988778" xlink:href="#m3d42f4eeb6" y="228.14"/>
      </g>
     </g>
     <g id="text_3">
      <!-- 3 -->
      <defs>
       <path d="M 6.984375 12.640625 
Q 14.75 6.640625 24.515625 6.640625 
Q 32.328125 6.640625 36.890625 10.46875 
Q 41.453125 14.3125 41.453125 20.75 
Q 41.453125 35.109375 20.90625 35.109375 
L 14.59375 35.109375 
L 14.59375 43.015625 
L 20.609375 43.015625 
Q 38.8125 43.015625 38.8125 56.5 
Q 38.8125 68.953125 24.90625 68.953125 
Q 16.9375 68.953125 9.90625 63.578125 
L 9.90625 72.609375 
Q 17.328125 76.90625 27.25 76.90625 
Q 36.921875 76.90625 42.78125 71.84375 
Q 48.640625 66.796875 48.640625 58.734375 
Q 48.640625 43.890625 33.5 39.65625 
L 33.5 39.453125 
Q 41.703125 38.578125 46.453125 33.671875 
Q 51.21875 28.765625 51.21875 21.4375 
Q 51.21875 11.234375 43.875 4.984375 
Q 36.53125 -1.265625 24.3125 -1.265625 
Q 13.578125 -1.265625 6.984375 2.734375 
z
" id="MicrosoftYaHei-33"/>
      </defs>
      <g transform="translate(137.056747 243.13375)scale(0.1 -0.1)">
       <use xlink:href="#MicrosoftYaHei-33"/>
      </g>
     </g>
    </g>
    <g id="xtick_4">
     <g id="line2d_4">
      <g>
       <use style="stroke:#000000;stroke-width:0.8;" x="178.034233" xlink:href="#m3d42f4eeb6" y="228.14"/>
      </g>
     </g>
     <g id="text_4">
      <!-- 4 -->
      <defs>
       <path d="M 55.078125 19.625 
L 45.40625 19.625 
L 45.40625 0 
L 36.140625 0 
L 36.140625 19.625 
L 0.875 19.625 
L 0.875 25.828125 
L 34.328125 75.640625 
L 45.40625 75.640625 
L 45.40625 27.203125 
L 55.078125 27.203125 
z
M 36.140625 27.203125 
L 36.140625 58.890625 
Q 36.140625 62.25 36.328125 66.65625 
L 36.140625 66.65625 
Q 35.453125 64.796875 33.25 60.84375 
L 10.75 27.203125 
z
" id="MicrosoftYaHei-34"/>
      </defs>
      <g transform="translate(175.102202 243.13375)scale(0.1 -0.1)">
       <use xlink:href="#MicrosoftYaHei-34"/>
      </g>
     </g>
    </g>
    <g id="xtick_5">
     <g id="line2d_5">
      <g>
       <use style="stroke:#000000;stroke-width:0.8;" x="216.079688" xlink:href="#m3d42f4eeb6" y="228.14"/>
      </g>
     </g>
     <g id="text_5">
      <!-- 5 -->
      <defs>
       <path d="M 8.640625 11.625 
Q 16.265625 6.640625 24.515625 6.640625 
Q 32.328125 6.640625 37.109375 11 
Q 41.890625 15.375 41.890625 22.609375 
Q 41.890625 29.890625 37.03125 33.890625 
Q 32.171875 37.890625 22.953125 37.890625 
Q 18.5 37.890625 10.984375 37.203125 
L 10.984375 75.640625 
L 48.1875 75.640625 
L 48.1875 67.1875 
L 19.875 67.1875 
L 19.875 45.796875 
Q 24.125 46.046875 26.265625 46.046875 
Q 38.234375 46.046875 44.921875 39.984375 
Q 51.609375 33.9375 51.609375 23.296875 
Q 51.609375 12.3125 44.421875 5.515625 
Q 37.25 -1.265625 24.609375 -1.265625 
Q 14.015625 -1.265625 8.640625 1.859375 
z
" id="MicrosoftYaHei-35"/>
      </defs>
      <g transform="translate(213.147656 243.13375)scale(0.1 -0.1)">
       <use xlink:href="#MicrosoftYaHei-35"/>
      </g>
     </g>
    </g>
    <g id="xtick_6">
     <g id="line2d_6">
      <g>
       <use style="stroke:#000000;stroke-width:0.8;" x="254.125142" xlink:href="#m3d42f4eeb6" y="228.14"/>
      </g>
     </g>
     <g id="text_6">
      <!-- 6 -->
      <defs>
       <path d="M 49.703125 65.921875 
Q 43.796875 68.953125 37.359375 68.953125 
Q 27.546875 68.953125 21.578125 60.40625 
Q 15.625 51.859375 15.53125 37.0625 
L 15.765625 37.0625 
Q 21.140625 47.46875 32.90625 47.46875 
Q 42.71875 47.46875 48.578125 41.0625 
Q 54.4375 34.671875 54.4375 24.078125 
Q 54.4375 12.984375 47.671875 5.859375 
Q 40.921875 -1.265625 30.421875 -1.265625 
Q 18.890625 -1.265625 12.328125 7.734375 
Q 5.765625 16.75 5.765625 33.296875 
Q 5.765625 53.328125 14.375 65.109375 
Q 23 76.90625 37.0625 76.90625 
Q 45.125 76.90625 49.703125 74.703125 
z
M 16.109375 24.75 
Q 16.109375 17.28125 20.09375 11.953125 
Q 24.078125 6.640625 30.671875 6.640625 
Q 36.921875 6.640625 40.828125 11.234375 
Q 44.734375 15.828125 44.734375 23.046875 
Q 44.734375 30.859375 41.046875 35.203125 
Q 37.359375 39.546875 30.5625 39.546875 
Q 24.125 39.546875 20.109375 35.15625 
Q 16.109375 30.765625 16.109375 24.75 
z
" id="MicrosoftYaHei-36"/>
      </defs>
      <g transform="translate(251.193111 243.13375)scale(0.1 -0.1)">
       <use xlink:href="#MicrosoftYaHei-36"/>
      </g>
     </g>
    </g>
    <g id="xtick_7">
     <g id="line2d_7">
      <g>
       <use style="stroke:#000000;stroke-width:0.8;" x="292.170597" xlink:href="#m3d42f4eeb6" y="228.14"/>
      </g>
     </g>
     <g id="text_7">
      <!-- 7 -->
      <defs>
       <path d="M 53.765625 72.3125 
L 24.171875 0 
L 14.265625 0 
L 42.390625 67.1875 
L 4.59375 67.1875 
L 4.59375 75.640625 
L 53.765625 75.640625 
z
" id="MicrosoftYaHei-37"/>
      </defs>
      <g transform="translate(289.238565 243.13375)scale(0.1 -0.1)">
       <use xlink:href="#MicrosoftYaHei-37"/>
      </g>
     </g>
    </g>
    <g id="xtick_8">
     <g id="line2d_8">
      <g>
       <use style="stroke:#000000;stroke-width:0.8;" x="330.216051" xlink:href="#m3d42f4eeb6" y="228.14"/>
      </g>
     </g>
     <g id="text_8">
      <!-- 8 -->
      <defs>
       <path d="M 21.390625 39.796875 
Q 7.859375 46.09375 7.859375 58.0625 
Q 7.859375 66.40625 14.203125 71.65625 
Q 20.5625 76.90625 30.421875 76.90625 
Q 39.453125 76.90625 45.3125 71.96875 
Q 51.171875 67.046875 51.171875 59.234375 
Q 51.171875 46.625 37.0625 39.84375 
L 37.0625 39.65625 
Q 53.609375 33.6875 53.609375 19.34375 
Q 53.609375 9.90625 46.796875 4.3125 
Q 39.984375 -1.265625 27.78125 -1.265625 
Q 17.78125 -1.265625 11.46875 4.25 
Q 5.171875 9.765625 5.171875 18.5625 
Q 5.171875 33.015625 21.390625 39.59375 
z
M 41.5 58.109375 
Q 41.5 63.1875 38.328125 66.109375 
Q 35.15625 69.046875 29.734375 69.046875 
Q 24.65625 69.046875 21.09375 65.984375 
Q 17.53125 62.9375 17.53125 58.203125 
Q 17.53125 48.734375 29.390625 43.796875 
Q 41.5 48.828125 41.5 58.109375 
z
M 28.8125 35.25 
Q 14.796875 29.59375 14.796875 19.046875 
Q 14.796875 13.578125 18.890625 10.0625 
Q 23 6.546875 29.59375 6.546875 
Q 35.984375 6.546875 39.984375 10.03125 
Q 44 13.53125 44 18.75 
Q 44 29.734375 28.8125 35.25 
z
" id="MicrosoftYaHei-38"/>
      </defs>
      <g transform="translate(327.28402 243.13375)scale(0.1 -0.1)">
       <use xlink:href="#MicrosoftYaHei-38"/>
      </g>
     </g>
    </g>
    <g id="xtick_9">
     <g id="line2d_9">
      <g>
       <use style="stroke:#000000;stroke-width:0.8;" x="368.261506" xlink:href="#m3d42f4eeb6" y="228.14"/>
      </g>
     </g>
     <g id="text_9">
      <!-- 9 -->
      <defs>
       <path d="M 9.03125 10.25 
Q 15.28125 6.640625 22.515625 6.640625 
Q 32.671875 6.640625 38.25 14.640625 
Q 43.84375 22.65625 43.84375 37.40625 
Q 43.75 37.3125 43.65625 37.40625 
Q 38.671875 27.9375 26.90625 27.9375 
Q 17.390625 27.9375 11.140625 34.46875 
Q 4.890625 41.015625 4.890625 51.46875 
Q 4.890625 62.59375 11.71875 69.75 
Q 18.5625 76.90625 29.4375 76.90625 
Q 40.71875 76.90625 47.0625 68.046875 
Q 53.421875 59.1875 53.421875 42.234375 
Q 53.421875 21.296875 45.21875 10.015625 
Q 37.015625 -1.265625 22.515625 -1.265625 
Q 14.546875 -1.265625 9.03125 1.3125 
z
M 14.546875 52.6875 
Q 14.546875 45.0625 18.453125 40.59375 
Q 22.359375 36.140625 29.25 36.140625 
Q 35.203125 36.140625 39.25 40.203125 
Q 43.3125 44.28125 43.3125 50.09375 
Q 43.3125 58.25 39.28125 63.59375 
Q 35.25 68.953125 28.65625 68.953125 
Q 22.5625 68.953125 18.546875 64.3125 
Q 14.546875 59.671875 14.546875 52.6875 
z
" id="MicrosoftYaHei-39"/>
      </defs>
      <g transform="translate(365.329474 243.13375)scale(0.1 -0.1)">
       <use xlink:href="#MicrosoftYaHei-39"/>
      </g>
     </g>
    </g>
    <g id="text_10">
     <!-- depth -->
     <defs>
      <path d="M 55.421875 0 
L 45.84375 0 
L 45.84375 8.984375 
L 45.65625 8.984375 
Q 39.75 -1.265625 27.296875 -1.265625 
Q 17.046875 -1.265625 10.984375 6.03125 
Q 4.9375 13.328125 4.9375 25.734375 
Q 4.9375 39.109375 11.765625 47.1875 
Q 18.609375 55.28125 29.640625 55.28125 
Q 40.671875 55.28125 45.65625 46.6875 
L 45.84375 46.6875 
L 45.84375 79.9375 
L 55.421875 79.9375 
z
M 45.90625 32.125 
Q 45.90625 38.625 41.625 42.984375 
Q 37.359375 47.359375 31.109375 47.359375 
Q 23.484375 47.359375 19.09375 41.671875 
Q 14.703125 35.984375 14.703125 26.171875 
Q 14.703125 17.140625 18.921875 11.890625 
Q 23.140625 6.640625 30.171875 6.640625 
Q 37.109375 6.640625 41.5 11.78125 
Q 45.90625 16.9375 45.90625 24.609375 
z
" id="MicrosoftYaHei-64"/>
      <path d="M 52.546875 24.5625 
L 14.75 24.5625 
Q 14.984375 15.921875 19.46875 11.203125 
Q 23.96875 6.5 32.03125 6.5 
Q 41.109375 6.5 48.6875 12.3125 
L 48.6875 3.765625 
Q 41.546875 -1.265625 29.78125 -1.265625 
Q 18.0625 -1.265625 11.5 6.15625 
Q 4.9375 13.578125 4.9375 26.765625 
Q 4.9375 39.15625 12.140625 47.21875 
Q 19.34375 55.28125 30.03125 55.28125 
Q 40.625 55.28125 46.578125 48.46875 
Q 52.546875 41.65625 52.546875 29.390625 
z
M 42.96875 32.234375 
Q 42.921875 39.546875 39.5 43.546875 
Q 36.078125 47.5625 29.890625 47.5625 
Q 24.171875 47.5625 20 43.3125 
Q 15.828125 39.0625 14.75 32.234375 
z
" id="MicrosoftYaHei-65"/>
      <path d="M 18.109375 7.625 
L 18.109375 -24.859375 
L 8.546875 -24.859375 
L 8.546875 54 
L 18.109375 54 
L 18.109375 44.671875 
L 18.3125 44.671875 
Q 24.65625 55.28125 36.859375 55.28125 
Q 47.21875 55.28125 53.09375 48.015625 
Q 58.984375 40.765625 58.984375 28.5625 
Q 58.984375 15.09375 52.3125 6.90625 
Q 45.65625 -1.265625 34.375 -1.265625 
Q 23.96875 -1.265625 18.3125 7.625 
z
M 18.0625 22.265625 
Q 18.0625 15.671875 22.3125 11.15625 
Q 26.5625 6.640625 32.953125 6.640625 
Q 40.578125 6.640625 44.875 12.5 
Q 49.171875 18.359375 49.171875 28.71875 
Q 49.171875 37.453125 45.15625 42.40625 
Q 41.15625 47.359375 34.234375 47.359375 
Q 27.15625 47.359375 22.609375 42.328125 
Q 18.0625 37.3125 18.0625 29.4375 
z
" id="MicrosoftYaHei-70"/>
      <path d="M 34.46875 0.53125 
Q 31.34375 -1.171875 26.03125 -1.171875 
Q 11.53125 -1.171875 11.53125 14.890625 
L 11.53125 46.09375 
L 2.25 46.09375 
L 2.25 54 
L 11.53125 54 
L 11.53125 67 
L 21.046875 70.015625 
L 21.046875 54 
L 34.46875 54 
L 34.46875 46.09375 
L 21.046875 46.09375 
L 21.046875 16.609375 
Q 21.046875 11.28125 22.84375 8.984375 
Q 24.65625 6.6875 28.859375 6.6875 
Q 32.078125 6.6875 34.46875 8.5 
z
" id="MicrosoftYaHei-74"/>
      <path d="M 54.15625 0 
L 44.625 0 
L 44.625 31.0625 
Q 44.625 47.359375 32.515625 47.359375 
Q 26.3125 47.359375 22.203125 42.59375 
Q 18.109375 37.84375 18.109375 30.609375 
L 18.109375 0 
L 8.546875 0 
L 8.546875 79.9375 
L 18.109375 79.9375 
L 18.109375 45.125 
L 18.3125 45.125 
Q 24.515625 55.28125 35.9375 55.28125 
Q 54.15625 55.28125 54.15625 33.25 
z
" id="MicrosoftYaHei-68"/>
     </defs>
     <g transform="translate(201.909375 257.613437)scale(0.1 -0.1)">
      <use xlink:href="#MicrosoftYaHei-64"/>
      <use x="63.964844" xlink:href="#MicrosoftYaHei-65"/>
      <use x="120.703125" xlink:href="#MicrosoftYaHei-70"/>
      <use x="184.570312" xlink:href="#MicrosoftYaHei-74"/>
      <use x="221.826172" xlink:href="#MicrosoftYaHei-68"/>
     </g>
    </g>
   </g>
   <g id="matplotlib.axis_2">
    <g id="ytick_1">
     <g id="line2d_10">
      <defs>
       <path d="M 0 0 
L -3.5 0 
" id="m1c7d33fd3c" style="stroke:#000000;stroke-width:0.8;"/>
      </defs>
      <g>
       <use style="stroke:#000000;stroke-width:0.8;" x="48.679688" xlink:href="#m1c7d33fd3c" y="218.256364"/>
      </g>
     </g>
     <g id="text_11">
      <!-- 0.00 -->
      <defs>
       <path d="M 4.4375 36.328125 
Q 4.4375 56.34375 11.078125 66.625 
Q 17.71875 76.90625 30.328125 76.90625 
Q 54.34375 76.90625 54.34375 38.140625 
Q 54.34375 19 47.578125 8.859375 
Q 40.828125 -1.265625 28.609375 -1.265625 
Q 17.09375 -1.265625 10.765625 8.34375 
Q 4.4375 17.96875 4.4375 36.328125 
z
M 14.203125 36.765625 
Q 14.203125 6.640625 29.5 6.640625 
Q 44.53125 6.640625 44.53125 37.25 
Q 44.53125 68.953125 29.78125 68.953125 
Q 14.203125 68.953125 14.203125 36.765625 
z
" id="MicrosoftYaHei-30"/>
       <path d="M 5.8125 5.03125 
Q 5.8125 7.671875 7.609375 9.46875 
Q 9.421875 11.28125 12.109375 11.28125 
Q 14.84375 11.28125 16.640625 9.453125 
Q 18.453125 7.625 18.453125 5.03125 
Q 18.453125 2.484375 16.640625 0.65625 
Q 14.84375 -1.171875 12.0625 -1.171875 
Q 9.375 -1.171875 7.59375 0.65625 
Q 5.8125 2.484375 5.8125 5.03125 
z
" id="MicrosoftYaHei-2e"/>
      </defs>
      <g transform="translate(21.679688 222.253239)scale(0.1 -0.1)">
       <use xlink:href="#MicrosoftYaHei-30"/>
       <use x="58.642578" xlink:href="#MicrosoftYaHei-2e"/>
       <use x="82.714844" xlink:href="#MicrosoftYaHei-30"/>
       <use x="141.357422" xlink:href="#MicrosoftYaHei-30"/>
      </g>
     </g>
    </g>
    <g id="ytick_2">
     <g id="line2d_11">
      <g>
       <use style="stroke:#000000;stroke-width:0.8;" x="48.679688" xlink:href="#m1c7d33fd3c" y="190.017403"/>
      </g>
     </g>
     <g id="text_12">
      <!-- 0.05 -->
      <g transform="translate(21.679688 194.014278)scale(0.1 -0.1)">
       <use xlink:href="#MicrosoftYaHei-30"/>
       <use x="58.642578" xlink:href="#MicrosoftYaHei-2e"/>
       <use x="82.714844" xlink:href="#MicrosoftYaHei-30"/>
       <use x="141.357422" xlink:href="#MicrosoftYaHei-35"/>
      </g>
     </g>
    </g>
    <g id="ytick_3">
     <g id="line2d_12">
      <g>
       <use style="stroke:#000000;stroke-width:0.8;" x="48.679688" xlink:href="#m1c7d33fd3c" y="161.778442"/>
      </g>
     </g>
     <g id="text_13">
      <!-- 0.10 -->
      <g transform="translate(21.679688 165.775317)scale(0.1 -0.1)">
       <use xlink:href="#MicrosoftYaHei-30"/>
       <use x="58.642578" xlink:href="#MicrosoftYaHei-2e"/>
       <use x="82.714844" xlink:href="#MicrosoftYaHei-31"/>
       <use x="141.357422" xlink:href="#MicrosoftYaHei-30"/>
      </g>
     </g>
    </g>
    <g id="ytick_4">
     <g id="line2d_13">
      <g>
       <use style="stroke:#000000;stroke-width:0.8;" x="48.679688" xlink:href="#m1c7d33fd3c" y="133.539481"/>
      </g>
     </g>
     <g id="text_14">
      <!-- 0.15 -->
      <g transform="translate(21.679688 137.536356)scale(0.1 -0.1)">
       <use xlink:href="#MicrosoftYaHei-30"/>
       <use x="58.642578" xlink:href="#MicrosoftYaHei-2e"/>
       <use x="82.714844" xlink:href="#MicrosoftYaHei-31"/>
       <use x="141.357422" xlink:href="#MicrosoftYaHei-35"/>
      </g>
     </g>
    </g>
    <g id="ytick_5">
     <g id="line2d_14">
      <g>
       <use style="stroke:#000000;stroke-width:0.8;" x="48.679688" xlink:href="#m1c7d33fd3c" y="105.300519"/>
      </g>
     </g>
     <g id="text_15">
      <!-- 0.20 -->
      <g transform="translate(21.679688 109.297394)scale(0.1 -0.1)">
       <use xlink:href="#MicrosoftYaHei-30"/>
       <use x="58.642578" xlink:href="#MicrosoftYaHei-2e"/>
       <use x="82.714844" xlink:href="#MicrosoftYaHei-32"/>
       <use x="141.357422" xlink:href="#MicrosoftYaHei-30"/>
      </g>
     </g>
    </g>
    <g id="ytick_6">
     <g id="line2d_15">
      <g>
       <use style="stroke:#000000;stroke-width:0.8;" x="48.679688" xlink:href="#m1c7d33fd3c" y="77.061558"/>
      </g>
     </g>
     <g id="text_16">
      <!-- 0.25 -->
      <g transform="translate(21.679688 81.058433)scale(0.1 -0.1)">
       <use xlink:href="#MicrosoftYaHei-30"/>
       <use x="58.642578" xlink:href="#MicrosoftYaHei-2e"/>
       <use x="82.714844" xlink:href="#MicrosoftYaHei-32"/>
       <use x="141.357422" xlink:href="#MicrosoftYaHei-35"/>
      </g>
     </g>
    </g>
    <g id="ytick_7">
     <g id="line2d_16">
      <g>
       <use style="stroke:#000000;stroke-width:0.8;" x="48.679688" xlink:href="#m1c7d33fd3c" y="48.822597"/>
      </g>
     </g>
     <g id="text_17">
      <!-- 0.30 -->
      <g transform="translate(21.679688 52.819472)scale(0.1 -0.1)">
       <use xlink:href="#MicrosoftYaHei-30"/>
       <use x="58.642578" xlink:href="#MicrosoftYaHei-2e"/>
       <use x="82.714844" xlink:href="#MicrosoftYaHei-33"/>
       <use x="141.357422" xlink:href="#MicrosoftYaHei-30"/>
      </g>
     </g>
    </g>
    <g id="ytick_8">
     <g id="line2d_17">
      <g>
       <use style="stroke:#000000;stroke-width:0.8;" x="48.679688" xlink:href="#m1c7d33fd3c" y="20.583636"/>
      </g>
     </g>
     <g id="text_18">
      <!-- 0.35 -->
      <g transform="translate(21.679688 24.580511)scale(0.1 -0.1)">
       <use xlink:href="#MicrosoftYaHei-30"/>
       <use x="58.642578" xlink:href="#MicrosoftYaHei-2e"/>
       <use x="82.714844" xlink:href="#MicrosoftYaHei-33"/>
       <use x="141.357422" xlink:href="#MicrosoftYaHei-35"/>
      </g>
     </g>
    </g>
    <g id="text_19">
     <!-- error -->
     <defs>
      <path d="M 37.5 44.53125 
Q 35.109375 46.234375 30.90625 46.234375 
Q 25.34375 46.234375 21.71875 41.03125 
Q 18.109375 35.84375 18.109375 27.34375 
L 18.109375 0 
L 8.546875 0 
L 8.546875 54 
L 18.109375 54 
L 18.109375 43.015625 
L 18.3125 43.015625 
Q 22.40625 54.9375 32.46875 54.9375 
Q 35.75 54.9375 37.5 54.203125 
z
" id="MicrosoftYaHei-72"/>
      <path d="M 4.9375 26.421875 
Q 4.9375 39.796875 12.40625 47.53125 
Q 19.875 55.28125 32.671875 55.28125 
Q 44.828125 55.28125 51.734375 47.828125 
Q 58.640625 40.375 58.640625 27.25 
Q 58.640625 14.453125 51.265625 6.59375 
Q 43.890625 -1.265625 31.5 -1.265625 
Q 19.390625 -1.265625 12.15625 6.34375 
Q 4.9375 13.96875 4.9375 26.421875 
z
M 14.703125 26.703125 
Q 14.703125 17.390625 19.40625 12.015625 
Q 24.125 6.640625 32.078125 6.640625 
Q 40.28125 6.640625 44.578125 11.890625 
Q 48.875 17.140625 48.875 26.953125 
Q 48.875 36.8125 44.578125 42.078125 
Q 40.28125 47.359375 32.078125 47.359375 
Q 24.03125 47.359375 19.359375 41.84375 
Q 14.703125 36.328125 14.703125 26.703125 
z
" id="MicrosoftYaHei-6f"/>
     </defs>
     <g transform="translate(15.19375 131.162969)rotate(-90)scale(0.1 -0.1)">
      <use xlink:href="#MicrosoftYaHei-65"/>
      <use x="56.738281" xlink:href="#MicrosoftYaHei-72"/>
      <use x="94.921875" xlink:href="#MicrosoftYaHei-72"/>
      <use x="133.089844" xlink:href="#MicrosoftYaHei-6f"/>
      <use x="196.664062" xlink:href="#MicrosoftYaHei-72"/>
     </g>
    </g>
   </g>
   <g id="line2d_18">
    <path clip-path="url(#p80c650c202)" d="M 63.897869 33.419528 
L 101.943324 192.584581 
L 139.988778 202.853294 
L 178.034233 218.256364 
L 216.079688 218.256364 
L 254.125142 218.256364 
L 292.170597 218.256364 
L 330.216051 218.256364 
L 368.261506 218.256364 
" style="fill:none;stroke:#1f77b4;stroke-linecap:square;stroke-width:1.5;"/>
    <defs>
     <path d="M 0 1.5 
C 0.397805 1.5 0.77937 1.341951 1.06066 1.06066 
C 1.341951 0.77937 1.5 0.397805 1.5 0 
C 1.5 -0.397805 1.341951 -0.77937 1.06066 -1.06066 
C 0.77937 -1.341951 0.397805 -1.5 0 -1.5 
C -0.397805 -1.5 -0.77937 -1.341951 -1.06066 -1.06066 
C -1.341951 -0.77937 -1.5 -0.397805 -1.5 0 
C -1.5 0.397805 -1.341951 0.77937 -1.06066 1.06066 
C -0.77937 1.341951 -0.397805 1.5 0 1.5 
z
" id="m0294a8f901" style="stroke:#1f77b4;"/>
    </defs>
    <g clip-path="url(#p80c650c202)">
     <use style="fill:#1f77b4;stroke:#1f77b4;" x="63.897869" xlink:href="#m0294a8f901" y="33.419528"/>
     <use style="fill:#1f77b4;stroke:#1f77b4;" x="101.943324" xlink:href="#m0294a8f901" y="192.584581"/>
     <use style="fill:#1f77b4;stroke:#1f77b4;" x="139.988778" xlink:href="#m0294a8f901" y="202.853294"/>
     <use style="fill:#1f77b4;stroke:#1f77b4;" x="178.034233" xlink:href="#m0294a8f901" y="218.256364"/>
     <use style="fill:#1f77b4;stroke:#1f77b4;" x="216.079688" xlink:href="#m0294a8f901" y="218.256364"/>
     <use style="fill:#1f77b4;stroke:#1f77b4;" x="254.125142" xlink:href="#m0294a8f901" y="218.256364"/>
     <use style="fill:#1f77b4;stroke:#1f77b4;" x="292.170597" xlink:href="#m0294a8f901" y="218.256364"/>
     <use style="fill:#1f77b4;stroke:#1f77b4;" x="330.216051" xlink:href="#m0294a8f901" y="218.256364"/>
     <use style="fill:#1f77b4;stroke:#1f77b4;" x="368.261506" xlink:href="#m0294a8f901" y="218.256364"/>
    </g>
   </g>
   <g id="line2d_19">
    <path clip-path="url(#p80c650c202)" d="M 63.897869 20.583636 
L 101.943324 204.136883 
L 139.988778 190.017403 
L 178.034233 190.017403 
L 216.079688 204.136883 
L 254.125142 204.136883 
L 292.170597 204.136883 
L 330.216051 204.136883 
L 368.261506 204.136883 
" style="fill:none;stroke:#ff7f0e;stroke-linecap:square;stroke-width:1.5;"/>
    <defs>
     <path d="M 0 1.5 
C 0.397805 1.5 0.77937 1.341951 1.06066 1.06066 
C 1.341951 0.77937 1.5 0.397805 1.5 0 
C 1.5 -0.397805 1.341951 -0.77937 1.06066 -1.06066 
C 0.77937 -1.341951 0.397805 -1.5 0 -1.5 
C -0.397805 -1.5 -0.77937 -1.341951 -1.06066 -1.06066 
C -1.341951 -0.77937 -1.5 -0.397805 -1.5 0 
C -1.5 0.397805 -1.341951 0.77937 -1.06066 1.06066 
C -0.77937 1.341951 -0.397805 1.5 0 1.5 
z
" id="mb3e30ae5ca" style="stroke:#ff7f0e;"/>
    </defs>
    <g clip-path="url(#p80c650c202)">
     <use style="fill:#ff7f0e;stroke:#ff7f0e;" x="63.897869" xlink:href="#mb3e30ae5ca" y="20.583636"/>
     <use style="fill:#ff7f0e;stroke:#ff7f0e;" x="101.943324" xlink:href="#mb3e30ae5ca" y="204.136883"/>
     <use style="fill:#ff7f0e;stroke:#ff7f0e;" x="139.988778" xlink:href="#mb3e30ae5ca" y="190.017403"/>
     <use style="fill:#ff7f0e;stroke:#ff7f0e;" x="178.034233" xlink:href="#mb3e30ae5ca" y="190.017403"/>
     <use style="fill:#ff7f0e;stroke:#ff7f0e;" x="216.079688" xlink:href="#mb3e30ae5ca" y="204.136883"/>
     <use style="fill:#ff7f0e;stroke:#ff7f0e;" x="254.125142" xlink:href="#mb3e30ae5ca" y="204.136883"/>
     <use style="fill:#ff7f0e;stroke:#ff7f0e;" x="292.170597" xlink:href="#mb3e30ae5ca" y="204.136883"/>
     <use style="fill:#ff7f0e;stroke:#ff7f0e;" x="330.216051" xlink:href="#mb3e30ae5ca" y="204.136883"/>
     <use style="fill:#ff7f0e;stroke:#ff7f0e;" x="368.261506" xlink:href="#mb3e30ae5ca" y="204.136883"/>
    </g>
   </g>
   <g id="patch_3">
    <path d="M 48.679688 228.14 
L 48.679688 10.7 
" style="fill:none;stroke:#000000;stroke-linecap:square;stroke-linejoin:miter;stroke-width:0.8;"/>
   </g>
   <g id="patch_4">
    <path d="M 383.479688 228.14 
L 383.479688 10.7 
" style="fill:none;stroke:#000000;stroke-linecap:square;stroke-linejoin:miter;stroke-width:0.8;"/>
   </g>
   <g id="patch_5">
    <path d="M 48.679688 228.14 
L 383.479688 228.14 
" style="fill:none;stroke:#000000;stroke-linecap:square;stroke-linejoin:miter;stroke-width:0.8;"/>
   </g>
   <g id="patch_6">
    <path d="M 48.679688 10.7 
L 383.479688 10.7 
" style="fill:none;stroke:#000000;stroke-linecap:square;stroke-linejoin:miter;stroke-width:0.8;"/>
   </g>
   <g id="legend_1">
    <g id="patch_7">
     <path d="M 296.139063 49.659375 
L 376.479688 49.659375 
Q 378.479688 49.659375 378.479688 47.659375 
L 378.479688 17.7 
Q 378.479688 15.7 376.479688 15.7 
L 296.139063 15.7 
Q 294.139063 15.7 294.139063 17.7 
L 294.139063 47.659375 
Q 294.139063 49.659375 296.139063 49.659375 
z
" style="fill:#ffffff;opacity:0.8;stroke:#cccccc;stroke-linejoin:miter;"/>
    </g>
    <g id="line2d_20">
     <path d="M 298.139063 24.19375 
L 318.139063 24.19375 
" style="fill:none;stroke:#1f77b4;stroke-linecap:square;stroke-width:1.5;"/>
    </g>
    <g id="line2d_21">
     <g>
      <use style="fill:#1f77b4;stroke:#1f77b4;" x="308.139063" xlink:href="#m0294a8f901" y="24.19375"/>
     </g>
    </g>
    <g id="text_20">
     <!-- train error -->
     <defs>
      <path d="M 9.8125 50.25 
Q 17.875 55.28125 28.421875 55.28125 
Q 47.953125 55.28125 47.953125 34.765625 
L 47.953125 0 
L 38.484375 0 
L 38.484375 8.34375 
L 38.234375 8.34375 
Q 32.625 -1.265625 21.6875 -1.265625 
Q 13.8125 -1.265625 9.171875 2.984375 
Q 4.546875 7.234375 4.546875 14.453125 
Q 4.546875 29.59375 22.46875 32.078125 
L 38.484375 34.328125 
Q 38.484375 47.5625 27.546875 47.5625 
Q 17.828125 47.5625 9.8125 41.015625 
z
M 25.828125 25.390625 
Q 19.1875 24.515625 16.671875 22.0625 
Q 14.15625 19.625 14.15625 15.234375 
Q 14.15625 11.375 16.890625 8.9375 
Q 19.625 6.5 24.125 6.5 
Q 30.375 6.5 34.421875 10.890625 
Q 38.484375 15.28125 38.484375 21.921875 
L 38.484375 27.09375 
z
" id="MicrosoftYaHei-61"/>
      <path d="M 7.375 73.046875 
Q 7.375 75.59375 9.109375 77.3125 
Q 10.84375 79.046875 13.375 79.046875 
Q 15.96875 79.046875 17.75 77.34375 
Q 19.53125 75.640625 19.53125 73.046875 
Q 19.53125 70.515625 17.75 68.828125 
Q 15.96875 67.140625 13.375 67.140625 
Q 10.796875 67.140625 9.078125 68.828125 
Q 7.375 70.515625 7.375 73.046875 
z
M 8.5 0 
L 8.5 54 
L 18.0625 54 
L 18.0625 0 
z
" id="MicrosoftYaHei-69"/>
      <path d="M 54.203125 0 
L 44.671875 0 
L 44.671875 30.71875 
Q 44.671875 47.359375 32.515625 47.359375 
Q 26.21875 47.359375 22.15625 42.671875 
Q 18.109375 37.984375 18.109375 30.8125 
L 18.109375 0 
L 8.546875 0 
L 8.546875 54 
L 18.109375 54 
L 18.109375 45.0625 
L 18.3125 45.0625 
Q 24.421875 55.28125 36.03125 55.28125 
Q 44.921875 55.28125 49.5625 49.578125 
Q 54.203125 43.890625 54.203125 33.015625 
z
" id="MicrosoftYaHei-6e"/>
      <path id="MicrosoftYaHei-20"/>
     </defs>
     <g transform="translate(326.139063 27.69375)scale(0.1 -0.1)">
      <use xlink:href="#MicrosoftYaHei-74"/>
      <use x="37.255859" xlink:href="#MicrosoftYaHei-72"/>
      <use x="75.439453" xlink:href="#MicrosoftYaHei-61"/>
      <use x="130.712891" xlink:href="#MicrosoftYaHei-69"/>
      <use x="157.324219" xlink:href="#MicrosoftYaHei-6e"/>
      <use x="218.945312" xlink:href="#MicrosoftYaHei-20"/>
      <use x="248.535156" xlink:href="#MicrosoftYaHei-65"/>
      <use x="305.273438" xlink:href="#MicrosoftYaHei-72"/>
      <use x="343.457031" xlink:href="#MicrosoftYaHei-72"/>
      <use x="381.625" xlink:href="#MicrosoftYaHei-6f"/>
      <use x="445.199219" xlink:href="#MicrosoftYaHei-72"/>
     </g>
    </g>
    <g id="line2d_22">
     <path d="M 298.139063 39.673437 
L 318.139063 39.673437 
" style="fill:none;stroke:#ff7f0e;stroke-linecap:square;stroke-width:1.5;"/>
    </g>
    <g id="line2d_23">
     <g>
      <use style="fill:#ff7f0e;stroke:#ff7f0e;" x="308.139063" xlink:href="#mb3e30ae5ca" y="39.673437"/>
     </g>
    </g>
    <g id="text_21">
     <!-- test error -->
     <defs>
      <path d="M 5.515625 11.671875 
Q 12.75 6.453125 21.09375 6.453125 
Q 32.28125 6.453125 32.28125 13.765625 
Q 32.28125 16.890625 29.828125 18.921875 
Q 27.390625 20.953125 19.921875 23.734375 
Q 10.9375 27.34375 8.25 30.875 
Q 5.5625 34.421875 5.5625 39.453125 
Q 5.5625 46.625 11.640625 50.953125 
Q 17.71875 55.28125 26.609375 55.28125 
Q 33.5 55.28125 39.40625 52.875 
L 39.40625 43.65625 
Q 33.34375 47.5625 25.6875 47.5625 
Q 21.09375 47.5625 18.203125 45.5625 
Q 15.328125 43.5625 15.328125 40.28125 
Q 15.328125 37.0625 17.40625 35.25 
Q 19.484375 33.453125 26.609375 30.609375 
Q 35.640625 27.25 38.8125 23.625 
Q 42 20.015625 42 14.703125 
Q 42 7.28125 35.90625 3 
Q 29.828125 -1.265625 20.171875 -1.265625 
Q 11.765625 -1.265625 5.515625 1.90625 
z
" id="MicrosoftYaHei-73"/>
     </defs>
     <g transform="translate(326.139063 43.173437)scale(0.1 -0.1)">
      <use xlink:href="#MicrosoftYaHei-74"/>
      <use x="37.255859" xlink:href="#MicrosoftYaHei-65"/>
      <use x="93.994141" xlink:href="#MicrosoftYaHei-73"/>
      <use x="140.283203" xlink:href="#MicrosoftYaHei-74"/>
      <use x="177.539062" xlink:href="#MicrosoftYaHei-20"/>
      <use x="207.128906" xlink:href="#MicrosoftYaHei-65"/>
      <use x="263.867188" xlink:href="#MicrosoftYaHei-72"/>
      <use x="302.050781" xlink:href="#MicrosoftYaHei-72"/>
      <use x="340.21875" xlink:href="#MicrosoftYaHei-6f"/>
      <use x="403.792969" xlink:href="#MicrosoftYaHei-72"/>
     </g>
    </g>
   </g>
  </g>
 </g>
 <defs>
  <clipPath id="p80c650c202">
   <rect height="217.44" width="334.8" x="48.679688" y="10.7"/>
  </clipPath>
 </defs>
</svg>
