<?xml version="1.0" encoding="utf-8" standalone="no"?>
<!DOCTYPE svg PUBLIC "-//W3C//DTD SVG 1.1//EN"
  "http://www.w3.org/Graphics/SVG/1.1/DTD/svg11.dtd">
<!-- Created with matplotlib (http://matplotlib.org/) -->
<svg height="479pt" version="1.1" viewBox="0 0 637 479" width="637pt" xmlns="http://www.w3.org/2000/svg" xmlns:xlink="http://www.w3.org/1999/xlink">
 <defs>
  <style type="text/css">
*{stroke-linecap:butt;stroke-linejoin:round;}
  </style>
 </defs>
 <g id="figure_1">
  <g id="patch_1">
   <path d="M -0 479.286812 
L 637.429234 479.286812 
L 637.429234 0 
L -0 0 
z
" style="fill:none;"/>
  </g>
  <g id="axes_1">
   <g id="patch_2">
    <path d="M 46.409234 399.374 
L 626.729234 399.374 
L 626.729234 10.7 
L 46.409234 10.7 
z
" style="fill:#ffffff;"/>
   </g>
   <g id="patch_3">
    <path clip-path="url(#p5ecfcb9b3e)" d="M 94.769234 399.374 
L 118.949234 399.374 
L 118.949234 118.097502 
L 94.769234 118.097502 
z
" style="fill:#1f77b4;"/>
   </g>
   <g id="patch_4">
    <path clip-path="url(#p5ecfcb9b3e)" d="M 288.209234 399.374 
L 312.389234 399.374 
L 312.389234 65.84278 
L 288.209234 65.84278 
z
" style="fill:#1f77b4;"/>
   </g>
   <g id="patch_5">
    <path clip-path="url(#p5ecfcb9b3e)" d="M 481.649234 399.374 
L 505.829234 399.374 
L 505.829234 29.208286 
L 481.649234 29.208286 
z
" style="fill:#1f77b4;"/>
   </g>
   <g id="patch_6">
    <path clip-path="url(#p5ecfcb9b3e)" d="M 118.949234 399.374 
L 143.129234 399.374 
L 143.129234 207.323846 
L 118.949234 207.323846 
z
" style="fill:#ff7f0e;"/>
   </g>
   <g id="patch_7">
    <path clip-path="url(#p5ecfcb9b3e)" d="M 312.389234 399.374 
L 336.569234 399.374 
L 336.569234 243.733589 
L 312.389234 243.733589 
z
" style="fill:#ff7f0e;"/>
   </g>
   <g id="patch_8">
    <path clip-path="url(#p5ecfcb9b3e)" d="M 505.829234 399.374 
L 530.009234 399.374 
L 530.009234 232.271263 
L 505.829234 232.271263 
z
" style="fill:#ff7f0e;"/>
   </g>
   <g id="patch_9">
    <path clip-path="url(#p5ecfcb9b3e)" d="M 143.129234 399.374 
L 167.309234 399.374 
L 167.309234 317.114952 
L 143.129234 317.114952 
z
" style="fill:#2ca02c;"/>
   </g>
   <g id="patch_10">
    <path clip-path="url(#p5ecfcb9b3e)" d="M 336.569234 399.374 
L 360.749234 399.374 
L 360.749234 160.013657 
L 336.569234 160.013657 
z
" style="fill:#2ca02c;"/>
   </g>
   <g id="patch_11">
    <path clip-path="url(#p5ecfcb9b3e)" d="M 530.009234 399.374 
L 554.189234 399.374 
L 554.189234 87.418923 
L 530.009234 87.418923 
z
" style="fill:#2ca02c;"/>
   </g>
   <g id="patch_12">
    <path clip-path="url(#p5ecfcb9b3e)" d="M 167.309234 399.374 
L 191.489234 399.374 
L 191.489234 385.664159 
L 167.309234 385.664159 
z
" style="fill:#d62728;"/>
   </g>
   <g id="patch_13">
    <path clip-path="url(#p5ecfcb9b3e)" d="M 360.749234 399.374 
L 384.929234 399.374 
L 384.929234 324.868879 
L 360.749234 324.868879 
z
" style="fill:#d62728;"/>
   </g>
   <g id="patch_14">
    <path clip-path="url(#p5ecfcb9b3e)" d="M 554.189234 399.374 
L 578.369234 399.374 
L 578.369234 285.537367 
L 554.189234 285.537367 
z
" style="fill:#d62728;"/>
   </g>
   <g id="matplotlib.axis_1">
    <g id="xtick_1">
     <g id="line2d_1">
      <defs>
       <path d="M 0 0 
L 0 3.5 
" id="m4f7628630e" style="stroke:#000000;stroke-width:1.3;"/>
      </defs>
      <g>
       <use style="stroke:#000000;stroke-width:1.3;" x="143.129234" xlink:href="#m4f7628630e" y="399.374"/>
      </g>
     </g>
     <g id="text_1">
      <!-- setosa -->
      <defs>
       <path d="M 5.515625 11.671875 
Q 12.75 6.453125 21.09375 6.453125 
Q 32.28125 6.453125 32.28125 13.765625 
Q 32.28125 16.890625 29.828125 18.921875 
Q 27.390625 20.953125 19.921875 23.734375 
Q 10.9375 27.34375 8.25 30.875 
Q 5.5625 34.421875 5.5625 39.453125 
Q 5.5625 46.625 11.640625 50.953125 
Q 17.71875 55.28125 26.609375 55.28125 
Q 33.5 55.28125 39.40625 52.875 
L 39.40625 43.65625 
Q 33.34375 47.5625 25.6875 47.5625 
Q 21.09375 47.5625 18.203125 45.5625 
Q 15.328125 43.5625 15.328125 40.28125 
Q 15.328125 37.0625 17.40625 35.25 
Q 19.484375 33.453125 26.609375 30.609375 
Q 35.640625 27.25 38.8125 23.625 
Q 42 20.015625 42 14.703125 
Q 42 7.28125 35.90625 3 
Q 29.828125 -1.265625 20.171875 -1.265625 
Q 11.765625 -1.265625 5.515625 1.90625 
z
" id="MicrosoftYaHei-73"/>
       <path d="M 52.546875 24.5625 
L 14.75 24.5625 
Q 14.984375 15.921875 19.46875 11.203125 
Q 23.96875 6.5 32.03125 6.5 
Q 41.109375 6.5 48.6875 12.3125 
L 48.6875 3.765625 
Q 41.546875 -1.265625 29.78125 -1.265625 
Q 18.0625 -1.265625 11.5 6.15625 
Q 4.9375 13.578125 4.9375 26.765625 
Q 4.9375 39.15625 12.140625 47.21875 
Q 19.34375 55.28125 30.03125 55.28125 
Q 40.625 55.28125 46.578125 48.46875 
Q 52.546875 41.65625 52.546875 29.390625 
z
M 42.96875 32.234375 
Q 42.921875 39.546875 39.5 43.546875 
Q 36.078125 47.5625 29.890625 47.5625 
Q 24.171875 47.5625 20 43.3125 
Q 15.828125 39.0625 14.75 32.234375 
z
" id="MicrosoftYaHei-65"/>
       <path d="M 34.46875 0.53125 
Q 31.34375 -1.171875 26.03125 -1.171875 
Q 11.53125 -1.171875 11.53125 14.890625 
L 11.53125 46.09375 
L 2.25 46.09375 
L 2.25 54 
L 11.53125 54 
L 11.53125 67 
L 21.046875 70.015625 
L 21.046875 54 
L 34.46875 54 
L 34.46875 46.09375 
L 21.046875 46.09375 
L 21.046875 16.609375 
Q 21.046875 11.28125 22.84375 8.984375 
Q 24.65625 6.6875 28.859375 6.6875 
Q 32.078125 6.6875 34.46875 8.5 
z
" id="MicrosoftYaHei-74"/>
       <path d="M 4.9375 26.421875 
Q 4.9375 39.796875 12.40625 47.53125 
Q 19.875 55.28125 32.671875 55.28125 
Q 44.828125 55.28125 51.734375 47.828125 
Q 58.640625 40.375 58.640625 27.25 
Q 58.640625 14.453125 51.265625 6.59375 
Q 43.890625 -1.265625 31.5 -1.265625 
Q 19.390625 -1.265625 12.15625 6.34375 
Q 4.9375 13.96875 4.9375 26.421875 
z
M 14.703125 26.703125 
Q 14.703125 17.390625 19.40625 12.015625 
Q 24.125 6.640625 32.078125 6.640625 
Q 40.28125 6.640625 44.578125 11.890625 
Q 48.875 17.140625 48.875 26.953125 
Q 48.875 36.8125 44.578125 42.078125 
Q 40.28125 47.359375 32.078125 47.359375 
Q 24.03125 47.359375 19.359375 41.84375 
Q 14.703125 36.328125 14.703125 26.703125 
z
" id="MicrosoftYaHei-6f"/>
       <path d="M 9.8125 50.25 
Q 17.875 55.28125 28.421875 55.28125 
Q 47.953125 55.28125 47.953125 34.765625 
L 47.953125 0 
L 38.484375 0 
L 38.484375 8.34375 
L 38.234375 8.34375 
Q 32.625 -1.265625 21.6875 -1.265625 
Q 13.8125 -1.265625 9.171875 2.984375 
Q 4.546875 7.234375 4.546875 14.453125 
Q 4.546875 29.59375 22.46875 32.078125 
L 38.484375 34.328125 
Q 38.484375 47.5625 27.546875 47.5625 
Q 17.828125 47.5625 9.8125 41.015625 
z
M 25.828125 25.390625 
Q 19.1875 24.515625 16.671875 22.0625 
Q 14.15625 19.625 14.15625 15.234375 
Q 14.15625 11.375 16.890625 8.9375 
Q 19.625 6.5 24.125 6.5 
Q 30.375 6.5 34.421875 10.890625 
Q 38.484375 15.28125 38.484375 21.921875 
L 38.484375 27.09375 
z
" id="MicrosoftYaHei-61"/>
      </defs>
      <g transform="translate(146.709313 451.680875)rotate(-90)scale(0.13 -0.13)">
       <use xlink:href="#MicrosoftYaHei-73"/>
       <use x="46.289062" xlink:href="#MicrosoftYaHei-65"/>
       <use x="103.027344" xlink:href="#MicrosoftYaHei-74"/>
       <use x="140.283203" xlink:href="#MicrosoftYaHei-6f"/>
       <use x="203.857422" xlink:href="#MicrosoftYaHei-73"/>
       <use x="250.146484" xlink:href="#MicrosoftYaHei-61"/>
      </g>
     </g>
    </g>
    <g id="xtick_2">
     <g id="line2d_2">
      <g>
       <use style="stroke:#000000;stroke-width:1.3;" x="336.569234" xlink:href="#m4f7628630e" y="399.374"/>
      </g>
     </g>
     <g id="text_2">
      <!-- versicolor -->
      <defs>
       <path d="M 52.046875 54 
L 30.671875 0 
L 21 0 
L 0.6875 54 
L 11.140625 54 
L 24.3125 15.4375 
Q 25.921875 10.796875 26.21875 7.671875 
L 26.46875 7.671875 
Q 26.953125 11.765625 28.171875 15.234375 
L 42 54 
z
" id="MicrosoftYaHei-76"/>
       <path d="M 37.5 44.53125 
Q 35.109375 46.234375 30.90625 46.234375 
Q 25.34375 46.234375 21.71875 41.03125 
Q 18.109375 35.84375 18.109375 27.34375 
L 18.109375 0 
L 8.546875 0 
L 8.546875 54 
L 18.109375 54 
L 18.109375 43.015625 
L 18.3125 43.015625 
Q 22.40625 54.9375 32.46875 54.9375 
Q 35.75 54.9375 37.5 54.203125 
z
" id="MicrosoftYaHei-72"/>
       <path d="M 7.375 73.046875 
Q 7.375 75.59375 9.109375 77.3125 
Q 10.84375 79.046875 13.375 79.046875 
Q 15.96875 79.046875 17.75 77.34375 
Q 19.53125 75.640625 19.53125 73.046875 
Q 19.53125 70.515625 17.75 68.828125 
Q 15.96875 67.140625 13.375 67.140625 
Q 10.796875 67.140625 9.078125 68.828125 
Q 7.375 70.515625 7.375 73.046875 
z
M 8.5 0 
L 8.5 54 
L 18.0625 54 
L 18.0625 0 
z
" id="MicrosoftYaHei-69"/>
       <path d="M 45.84375 2.4375 
Q 39.65625 -1.265625 30.90625 -1.265625 
Q 19.1875 -1.265625 12.0625 6.25 
Q 4.9375 13.765625 4.9375 25.734375 
Q 4.9375 39.015625 12.625 47.140625 
Q 20.3125 55.28125 33.203125 55.28125 
Q 40.625 55.28125 45.90625 52.640625 
L 45.90625 43.171875 
Q 40.1875 47.359375 33.203125 47.359375 
Q 25 47.359375 19.84375 41.671875 
Q 14.703125 35.984375 14.703125 26.515625 
Q 14.703125 17.1875 19.5625 11.90625 
Q 24.421875 6.640625 32.671875 6.640625 
Q 39.65625 6.640625 45.84375 11.234375 
z
" id="MicrosoftYaHei-63"/>
       <path d="M 8.5 0 
L 8.5 79.9375 
L 18.0625 79.9375 
L 18.0625 0 
z
" id="MicrosoftYaHei-6c"/>
      </defs>
      <g transform="translate(340.149313 472.086813)rotate(-90)scale(0.13 -0.13)">
       <use xlink:href="#MicrosoftYaHei-76"/>
       <use x="52.490234" xlink:href="#MicrosoftYaHei-65"/>
       <use x="109.228516" xlink:href="#MicrosoftYaHei-72"/>
       <use x="147.412109" xlink:href="#MicrosoftYaHei-73"/>
       <use x="193.701172" xlink:href="#MicrosoftYaHei-69"/>
       <use x="220.3125" xlink:href="#MicrosoftYaHei-63"/>
       <use x="270.458984" xlink:href="#MicrosoftYaHei-6f"/>
       <use x="334.033203" xlink:href="#MicrosoftYaHei-6c"/>
       <use x="360.644531" xlink:href="#MicrosoftYaHei-6f"/>
       <use x="424.21875" xlink:href="#MicrosoftYaHei-72"/>
      </g>
     </g>
    </g>
    <g id="xtick_3">
     <g id="line2d_3">
      <g>
       <use style="stroke:#000000;stroke-width:1.3;" x="530.009234" xlink:href="#m4f7628630e" y="399.374"/>
      </g>
     </g>
     <g id="text_3">
      <!-- virginica -->
      <defs>
       <path d="M 55.421875 4.546875 
Q 55.421875 -25.4375 26.3125 -25.4375 
Q 16.265625 -25.4375 8.84375 -21.6875 
L 8.84375 -12.453125 
Q 17.875 -17.484375 26.171875 -17.484375 
Q 45.84375 -17.484375 45.84375 3.21875 
L 45.84375 8.9375 
L 45.65625 8.9375 
Q 39.5 -1.265625 27.296875 -1.265625 
Q 17.140625 -1.265625 11.03125 6 
Q 4.9375 13.28125 4.9375 25.296875 
Q 4.9375 39.109375 11.671875 47.1875 
Q 18.40625 55.28125 29.640625 55.28125 
Q 40.4375 55.28125 45.65625 46.6875 
L 45.84375 46.6875 
L 45.84375 54 
L 55.421875 54 
z
M 45.84375 32.125 
Q 45.90625 38.375 41.65625 42.859375 
Q 37.40625 47.359375 31.203125 47.359375 
Q 23.390625 47.359375 19.046875 41.625 
Q 14.703125 35.890625 14.703125 25.875 
Q 14.703125 17.28125 18.890625 11.953125 
Q 23.09375 6.640625 30.03125 6.640625 
Q 37.015625 6.640625 41.453125 11.71875 
Q 45.90625 16.796875 45.84375 24.609375 
z
" id="MicrosoftYaHei-67"/>
       <path d="M 54.203125 0 
L 44.671875 0 
L 44.671875 30.71875 
Q 44.671875 47.359375 32.515625 47.359375 
Q 26.21875 47.359375 22.15625 42.671875 
Q 18.109375 37.984375 18.109375 30.8125 
L 18.109375 0 
L 8.546875 0 
L 8.546875 54 
L 18.109375 54 
L 18.109375 45.0625 
L 18.3125 45.0625 
Q 24.421875 55.28125 36.03125 55.28125 
Q 44.921875 55.28125 49.5625 49.578125 
Q 54.203125 43.890625 54.203125 33.015625 
z
" id="MicrosoftYaHei-6e"/>
      </defs>
      <g transform="translate(533.514156 464.169)rotate(-90)scale(0.13 -0.13)">
       <use xlink:href="#MicrosoftYaHei-76"/>
       <use x="52.490234" xlink:href="#MicrosoftYaHei-69"/>
       <use x="79.101562" xlink:href="#MicrosoftYaHei-72"/>
       <use x="117.269531" xlink:href="#MicrosoftYaHei-67"/>
       <use x="181.234375" xlink:href="#MicrosoftYaHei-69"/>
       <use x="207.845703" xlink:href="#MicrosoftYaHei-6e"/>
       <use x="269.466797" xlink:href="#MicrosoftYaHei-69"/>
       <use x="296.078125" xlink:href="#MicrosoftYaHei-63"/>
       <use x="346.224609" xlink:href="#MicrosoftYaHei-61"/>
      </g>
     </g>
    </g>
   </g>
   <g id="matplotlib.axis_2">
    <g id="ytick_1">
     <g id="line2d_4">
      <defs>
       <path d="M 0 0 
L -3.5 0 
" id="m042dee98e2" style="stroke:#000000;stroke-width:1.3;"/>
      </defs>
      <g>
       <use style="stroke:#000000;stroke-width:1.3;" x="46.409234" xlink:href="#m042dee98e2" y="399.374"/>
      </g>
     </g>
     <g id="text_4">
      <!-- 0 -->
      <defs>
       <path d="M 4.4375 36.328125 
Q 4.4375 56.34375 11.078125 66.625 
Q 17.71875 76.90625 30.328125 76.90625 
Q 54.34375 76.90625 54.34375 38.140625 
Q 54.34375 19 47.578125 8.859375 
Q 40.828125 -1.265625 28.609375 -1.265625 
Q 17.09375 -1.265625 10.765625 8.34375 
Q 4.4375 17.96875 4.4375 36.328125 
z
M 14.203125 36.765625 
Q 14.203125 6.640625 29.5 6.640625 
Q 44.53125 6.640625 44.53125 37.25 
Q 44.53125 68.953125 29.78125 68.953125 
Q 14.203125 68.953125 14.203125 36.765625 
z
" id="MicrosoftYaHei-30"/>
      </defs>
      <g transform="translate(26.185953 404.569937)scale(0.13 -0.13)">
       <use xlink:href="#MicrosoftYaHei-30"/>
      </g>
     </g>
    </g>
    <g id="ytick_2">
     <g id="line2d_5">
      <g>
       <use style="stroke:#000000;stroke-width:1.3;" x="46.409234" xlink:href="#m042dee98e2" y="343.186126"/>
      </g>
     </g>
     <g id="text_5">
      <!-- 1 -->
      <defs>
       <path d="M 52.59375 0 
L 9.234375 0 
L 9.234375 8.25 
L 26.171875 8.25 
L 26.171875 65.671875 
L 8.796875 60.640625 
L 8.796875 69.4375 
L 35.6875 77.25 
L 35.6875 8.25 
L 52.59375 8.25 
z
" id="MicrosoftYaHei-31"/>
      </defs>
      <g transform="translate(26.185953 348.382063)scale(0.13 -0.13)">
       <use xlink:href="#MicrosoftYaHei-31"/>
      </g>
     </g>
    </g>
    <g id="ytick_3">
     <g id="line2d_6">
      <g>
       <use style="stroke:#000000;stroke-width:1.3;" x="46.409234" xlink:href="#m042dee98e2" y="286.998252"/>
      </g>
     </g>
     <g id="text_6">
      <!-- 2 -->
      <defs>
       <path d="M 51.171875 0 
L 5.171875 0 
L 5.171875 8.296875 
L 27.15625 30.21875 
Q 36.234375 39.3125 39.3125 44.609375 
Q 42.390625 49.90625 42.390625 55.5625 
Q 42.390625 62.015625 38.765625 65.453125 
Q 35.15625 68.890625 28.328125 68.890625 
Q 18.21875 68.890625 9.03125 60.296875 
L 9.03125 70.015625 
Q 17.96875 76.90625 29.828125 76.90625 
Q 40.046875 76.90625 45.953125 71.390625 
Q 51.859375 65.875 51.859375 56.546875 
Q 51.859375 49.515625 48.0625 42.75 
Q 44.28125 35.984375 33.734375 25.53125 
L 16.5 8.6875 
L 16.5 8.5 
L 51.171875 8.5 
z
" id="MicrosoftYaHei-32"/>
      </defs>
      <g transform="translate(26.185953 292.194189)scale(0.13 -0.13)">
       <use xlink:href="#MicrosoftYaHei-32"/>
      </g>
     </g>
    </g>
    <g id="ytick_4">
     <g id="line2d_7">
      <g>
       <use style="stroke:#000000;stroke-width:1.3;" x="46.409234" xlink:href="#m042dee98e2" y="230.810378"/>
      </g>
     </g>
     <g id="text_7">
      <!-- 3 -->
      <defs>
       <path d="M 6.984375 12.640625 
Q 14.75 6.640625 24.515625 6.640625 
Q 32.328125 6.640625 36.890625 10.46875 
Q 41.453125 14.3125 41.453125 20.75 
Q 41.453125 35.109375 20.90625 35.109375 
L 14.59375 35.109375 
L 14.59375 43.015625 
L 20.609375 43.015625 
Q 38.8125 43.015625 38.8125 56.5 
Q 38.8125 68.953125 24.90625 68.953125 
Q 16.9375 68.953125 9.90625 63.578125 
L 9.90625 72.609375 
Q 17.328125 76.90625 27.25 76.90625 
Q 36.921875 76.90625 42.78125 71.84375 
Q 48.640625 66.796875 48.640625 58.734375 
Q 48.640625 43.890625 33.5 39.65625 
L 33.5 39.453125 
Q 41.703125 38.578125 46.453125 33.671875 
Q 51.21875 28.765625 51.21875 21.4375 
Q 51.21875 11.234375 43.875 4.984375 
Q 36.53125 -1.265625 24.3125 -1.265625 
Q 13.578125 -1.265625 6.984375 2.734375 
z
" id="MicrosoftYaHei-33"/>
      </defs>
      <g transform="translate(26.185953 236.006315)scale(0.13 -0.13)">
       <use xlink:href="#MicrosoftYaHei-33"/>
      </g>
     </g>
    </g>
    <g id="ytick_5">
     <g id="line2d_8">
      <g>
       <use style="stroke:#000000;stroke-width:1.3;" x="46.409234" xlink:href="#m042dee98e2" y="174.622504"/>
      </g>
     </g>
     <g id="text_8">
      <!-- 4 -->
      <defs>
       <path d="M 55.078125 19.625 
L 45.40625 19.625 
L 45.40625 0 
L 36.140625 0 
L 36.140625 19.625 
L 0.875 19.625 
L 0.875 25.828125 
L 34.328125 75.640625 
L 45.40625 75.640625 
L 45.40625 27.203125 
L 55.078125 27.203125 
z
M 36.140625 27.203125 
L 36.140625 58.890625 
Q 36.140625 62.25 36.328125 66.65625 
L 36.140625 66.65625 
Q 35.453125 64.796875 33.25 60.84375 
L 10.75 27.203125 
z
" id="MicrosoftYaHei-34"/>
      </defs>
      <g transform="translate(26.185953 179.818441)scale(0.13 -0.13)">
       <use xlink:href="#MicrosoftYaHei-34"/>
      </g>
     </g>
    </g>
    <g id="ytick_6">
     <g id="line2d_9">
      <g>
       <use style="stroke:#000000;stroke-width:1.3;" x="46.409234" xlink:href="#m042dee98e2" y="118.43463"/>
      </g>
     </g>
     <g id="text_9">
      <!-- 5 -->
      <defs>
       <path d="M 8.640625 11.625 
Q 16.265625 6.640625 24.515625 6.640625 
Q 32.328125 6.640625 37.109375 11 
Q 41.890625 15.375 41.890625 22.609375 
Q 41.890625 29.890625 37.03125 33.890625 
Q 32.171875 37.890625 22.953125 37.890625 
Q 18.5 37.890625 10.984375 37.203125 
L 10.984375 75.640625 
L 48.1875 75.640625 
L 48.1875 67.1875 
L 19.875 67.1875 
L 19.875 45.796875 
Q 24.125 46.046875 26.265625 46.046875 
Q 38.234375 46.046875 44.921875 39.984375 
Q 51.609375 33.9375 51.609375 23.296875 
Q 51.609375 12.3125 44.421875 5.515625 
Q 37.25 -1.265625 24.609375 -1.265625 
Q 14.015625 -1.265625 8.640625 1.859375 
z
" id="MicrosoftYaHei-35"/>
      </defs>
      <g transform="translate(26.185953 123.630567)scale(0.13 -0.13)">
       <use xlink:href="#MicrosoftYaHei-35"/>
      </g>
     </g>
    </g>
    <g id="ytick_7">
     <g id="line2d_10">
      <g>
       <use style="stroke:#000000;stroke-width:1.3;" x="46.409234" xlink:href="#m042dee98e2" y="62.246756"/>
      </g>
     </g>
     <g id="text_10">
      <!-- 6 -->
      <defs>
       <path d="M 49.703125 65.921875 
Q 43.796875 68.953125 37.359375 68.953125 
Q 27.546875 68.953125 21.578125 60.40625 
Q 15.625 51.859375 15.53125 37.0625 
L 15.765625 37.0625 
Q 21.140625 47.46875 32.90625 47.46875 
Q 42.71875 47.46875 48.578125 41.0625 
Q 54.4375 34.671875 54.4375 24.078125 
Q 54.4375 12.984375 47.671875 5.859375 
Q 40.921875 -1.265625 30.421875 -1.265625 
Q 18.890625 -1.265625 12.328125 7.734375 
Q 5.765625 16.75 5.765625 33.296875 
Q 5.765625 53.328125 14.375 65.109375 
Q 23 76.90625 37.0625 76.90625 
Q 45.125 76.90625 49.703125 74.703125 
z
M 16.109375 24.75 
Q 16.109375 17.28125 20.09375 11.953125 
Q 24.078125 6.640625 30.671875 6.640625 
Q 36.921875 6.640625 40.828125 11.234375 
Q 44.734375 15.828125 44.734375 23.046875 
Q 44.734375 30.859375 41.046875 35.203125 
Q 37.359375 39.546875 30.5625 39.546875 
Q 24.125 39.546875 20.109375 35.15625 
Q 16.109375 30.765625 16.109375 24.75 
z
" id="MicrosoftYaHei-36"/>
      </defs>
      <g transform="translate(26.185953 67.442693)scale(0.13 -0.13)">
       <use xlink:href="#MicrosoftYaHei-36"/>
      </g>
     </g>
    </g>
    <g id="text_11">
     <!-- 平均值 -->
     <defs>
      <path d="M 2.640625 30.21875 
L 45.90625 30.21875 
L 45.90625 71.046875 
L 7.03125 71.046875 
L 7.03125 78.5625 
L 93.359375 78.5625 
L 93.359375 71.046875 
L 54.109375 71.046875 
L 54.109375 30.21875 
L 97.65625 30.21875 
L 97.65625 22.703125 
L 54.109375 22.703125 
L 54.109375 -13.234375 
L 45.90625 -13.234375 
L 45.90625 22.703125 
L 2.640625 22.703125 
z
M 61.71875 39.984375 
Q 72.46875 51.3125 81.0625 64.984375 
L 88.375 60.296875 
Q 77.34375 45.171875 67.78125 34.90625 
z
M 12.015625 60.296875 
L 18.171875 64.59375 
Q 29.109375 51.8125 37.015625 39.890625 
L 30.078125 34.71875 
Q 22.5625 46.921875 12.015625 60.296875 
z
" id="MicrosoftYaHei-5e73"/>
      <path d="M 35.0625 43.796875 
Q 45.796875 61.765625 52.15625 83.15625 
L 59.96875 80.8125 
Q 57.671875 74.125 55.171875 67.921875 
L 93.953125 67.921875 
Q 92.578125 16.453125 91.796875 4.640625 
Q 91.109375 -10.890625 75.09375 -10.890625 
Q 65.4375 -10.890625 57.90625 -10.5 
Q 57.328125 -6.59375 56.34375 -2.203125 
L 56.640625 -2.203125 
Q 66.40625 -3.265625 74.609375 -3.265625 
Q 83.59375 -3.265625 84.28125 5.90625 
Q 85.25 22.609375 86.140625 60.796875 
L 52.203125 60.796875 
Q 47.3125 49.5625 41.796875 40.1875 
Q 38.765625 42.046875 35.0625 43.796875 
z
M 1.265625 6.6875 
Q 8.734375 9.375 15.71875 12.015625 
L 15.71875 50.828125 
L 2.640625 50.828125 
L 2.640625 57.765625 
L 15.71875 57.765625 
L 15.71875 82.171875 
L 22.953125 82.171875 
L 22.953125 57.765625 
L 35.640625 57.765625 
L 35.640625 50.828125 
L 22.953125 50.828125 
L 22.953125 14.796875 
Q 30.03125 17.578125 36.53125 20.359375 
Q 36.71875 15.484375 37.015625 12.25 
Q 21.296875 6.296875 3.90625 -0.828125 
z
M 39.265625 13.328125 
Q 58.890625 21.140625 79.984375 30.21875 
Q 80.46875 25.640625 81.0625 22.40625 
Q 62.984375 14.796875 42.28125 5.609375 
z
M 49.03125 45.453125 
L 54.390625 50.25 
Q 62.890625 42.4375 70.796875 34.625 
L 64.453125 29.046875 
Q 56.9375 37.640625 49.03125 45.453125 
z
" id="MicrosoftYaHei-5747"/>
      <path d="M 25.296875 -3.375 
L 35.15625 -3.375 
L 35.15625 57.078125 
L 58.203125 57.078125 
L 58.203125 65.96875 
L 29.890625 65.96875 
L 29.890625 72.609375 
L 58.203125 72.609375 
L 58.203125 82.953125 
L 65.625 82.953125 
L 65.625 72.609375 
L 96.390625 72.609375 
L 96.390625 65.96875 
L 65.625 65.96875 
L 65.625 57.078125 
L 89.265625 57.078125 
L 89.265625 -3.375 
L 98.53125 -3.375 
L 98.53125 -10.015625 
L 25.296875 -10.015625 
z
M 1.078125 35.109375 
Q 14.15625 54.640625 21.390625 82.46875 
L 28.609375 80.328125 
Q 24.703125 67.71875 20.125 56.6875 
L 20.125 -12.75 
L 12.984375 -12.75 
L 12.984375 41.65625 
Q 8.796875 33.84375 4.109375 27.09375 
Q 2.734375 31.203125 1.078125 35.109375 
z
M 42.390625 -3.375 
L 82.03125 -3.375 
L 82.03125 5.515625 
L 42.390625 5.515625 
z
M 82.03125 50.640625 
L 42.390625 50.640625 
L 42.390625 41.84375 
L 82.03125 41.84375 
z
M 42.390625 26.8125 
L 82.03125 26.8125 
L 82.03125 35.59375 
L 42.390625 35.59375 
z
M 42.390625 11.765625 
L 82.03125 11.765625 
L 82.03125 20.5625 
L 42.390625 20.5625 
z
" id="MicrosoftYaHei-503c"/>
     </defs>
     <g transform="translate(18.631063 226.487)rotate(-90)scale(0.143 -0.143)">
      <use xlink:href="#MicrosoftYaHei-5e73"/>
      <use x="100" xlink:href="#MicrosoftYaHei-5747"/>
      <use x="200" xlink:href="#MicrosoftYaHei-503c"/>
     </g>
    </g>
   </g>
   <g id="patch_15">
    <path d="M 46.409234 399.374 
L 46.409234 10.7 
" style="fill:none;stroke:#000000;stroke-linecap:square;stroke-linejoin:miter;stroke-width:0.8;"/>
   </g>
   <g id="patch_16">
    <path d="M 626.729234 399.374 
L 626.729234 10.7 
" style="fill:none;stroke:#000000;stroke-linecap:square;stroke-linejoin:miter;stroke-width:0.8;"/>
   </g>
   <g id="patch_17">
    <path d="M 46.409234 399.374 
L 626.729234 399.374 
" style="fill:none;stroke:#000000;stroke-linecap:square;stroke-linejoin:miter;stroke-width:0.8;"/>
   </g>
   <g id="patch_18">
    <path d="M 46.409234 10.7 
L 626.729234 10.7 
" style="fill:none;stroke:#000000;stroke-linecap:square;stroke-linejoin:miter;stroke-width:0.8;"/>
   </g>
   <g id="legend_1">
    <g id="patch_19">
     <path d="M 55.509234 101.744687 
L 204.540016 101.744687 
Q 207.140016 101.744687 207.140016 99.144687 
L 207.140016 19.8 
Q 207.140016 17.2 204.540016 17.2 
L 55.509234 17.2 
Q 52.909234 17.2 52.909234 19.8 
L 52.909234 99.144687 
Q 52.909234 101.744687 55.509234 101.744687 
z
" style="fill:#ffffff;opacity:0.8;stroke:#cccccc;stroke-linejoin:miter;stroke-width:0.39;"/>
    </g>
    <g id="patch_20">
     <path d="M 58.109234 32.791875 
L 84.109234 32.791875 
L 84.109234 23.691875 
L 58.109234 23.691875 
z
" style="fill:#1f77b4;"/>
    </g>
    <g id="text_12">
     <!-- sepal length (cm) -->
     <defs>
      <path d="M 18.109375 7.625 
L 18.109375 -24.859375 
L 8.546875 -24.859375 
L 8.546875 54 
L 18.109375 54 
L 18.109375 44.671875 
L 18.3125 44.671875 
Q 24.65625 55.28125 36.859375 55.28125 
Q 47.21875 55.28125 53.09375 48.015625 
Q 58.984375 40.765625 58.984375 28.5625 
Q 58.984375 15.09375 52.3125 6.90625 
Q 45.65625 -1.265625 34.375 -1.265625 
Q 23.96875 -1.265625 18.3125 7.625 
z
M 18.0625 22.265625 
Q 18.0625 15.671875 22.3125 11.15625 
Q 26.5625 6.640625 32.953125 6.640625 
Q 40.578125 6.640625 44.875 12.5 
Q 49.171875 18.359375 49.171875 28.71875 
Q 49.171875 37.453125 45.15625 42.40625 
Q 41.15625 47.359375 34.234375 47.359375 
Q 27.15625 47.359375 22.609375 42.328125 
Q 18.0625 37.3125 18.0625 29.4375 
z
" id="MicrosoftYaHei-70"/>
      <path id="MicrosoftYaHei-20"/>
      <path d="M 54.15625 0 
L 44.625 0 
L 44.625 31.0625 
Q 44.625 47.359375 32.515625 47.359375 
Q 26.3125 47.359375 22.203125 42.59375 
Q 18.109375 37.84375 18.109375 30.609375 
L 18.109375 0 
L 8.546875 0 
L 8.546875 79.9375 
L 18.109375 79.9375 
L 18.109375 45.125 
L 18.3125 45.125 
Q 24.515625 55.28125 35.9375 55.28125 
Q 54.15625 55.28125 54.15625 33.25 
z
" id="MicrosoftYaHei-68"/>
      <path d="M 23.921875 -17.1875 
Q 7.46875 1.5625 7.46875 28.859375 
Q 7.46875 56.15625 23.921875 75.640625 
L 32.375 75.640625 
Q 15.875 55.375 15.875 28.953125 
Q 15.875 2.59375 32.28125 -17.1875 
z
" id="MicrosoftYaHei-28"/>
      <path d="M 86.28125 0 
L 76.703125 0 
L 76.703125 31 
Q 76.703125 39.796875 73.96875 43.578125 
Q 71.234375 47.359375 64.984375 47.359375 
Q 59.71875 47.359375 55.953125 42.421875 
Q 52.203125 37.5 52.203125 30.765625 
L 52.203125 0 
L 42.625 0 
L 42.625 31.984375 
Q 42.625 47.359375 30.765625 47.359375 
Q 25.296875 47.359375 21.703125 42.671875 
Q 18.109375 37.984375 18.109375 30.71875 
L 18.109375 0 
L 8.546875 0 
L 8.546875 54 
L 18.109375 54 
L 18.109375 45.453125 
L 18.3125 45.453125 
Q 24.078125 55.28125 35.15625 55.28125 
Q 40.578125 55.28125 44.71875 52.296875 
Q 48.875 49.3125 50.484375 44.234375 
Q 56.5 55.28125 68.453125 55.28125 
Q 86.28125 55.28125 86.28125 33.296875 
z
" id="MicrosoftYaHei-6d"/>
      <path d="M 1.21875 -17.1875 
Q 17.671875 2.546875 17.671875 28.953125 
Q 17.671875 55.421875 1.125 75.640625 
L 9.625 75.640625 
Q 26.125 56.296875 26.125 28.859375 
Q 26.125 1.421875 9.625 -17.1875 
z
" id="MicrosoftYaHei-29"/>
     </defs>
     <g transform="translate(94.509234 32.791875)scale(0.13 -0.13)">
      <use xlink:href="#MicrosoftYaHei-73"/>
      <use x="46.289062" xlink:href="#MicrosoftYaHei-65"/>
      <use x="103.027344" xlink:href="#MicrosoftYaHei-70"/>
      <use x="166.878906" xlink:href="#MicrosoftYaHei-61"/>
      <use x="222.152344" xlink:href="#MicrosoftYaHei-6c"/>
      <use x="248.763672" xlink:href="#MicrosoftYaHei-20"/>
      <use x="278.353516" xlink:href="#MicrosoftYaHei-6c"/>
      <use x="304.964844" xlink:href="#MicrosoftYaHei-65"/>
      <use x="361.703125" xlink:href="#MicrosoftYaHei-6e"/>
      <use x="423.324219" xlink:href="#MicrosoftYaHei-67"/>
      <use x="487.289062" xlink:href="#MicrosoftYaHei-74"/>
      <use x="524.544922" xlink:href="#MicrosoftYaHei-68"/>
      <use x="586.117188" xlink:href="#MicrosoftYaHei-20"/>
      <use x="615.707031" xlink:href="#MicrosoftYaHei-28"/>
      <use x="649.105469" xlink:href="#MicrosoftYaHei-63"/>
      <use x="699.251953" xlink:href="#MicrosoftYaHei-6d"/>
      <use x="792.953125" xlink:href="#MicrosoftYaHei-29"/>
     </g>
    </g>
    <g id="patch_21">
     <path d="M 58.109234 52.990625 
L 84.109234 52.990625 
L 84.109234 43.890625 
L 58.109234 43.890625 
z
" style="fill:#ff7f0e;"/>
    </g>
    <g id="text_13">
     <!-- sepal width (cm) -->
     <defs>
      <path d="M 77.734375 54 
L 61.625 0 
L 51.65625 0 
L 40.921875 37.890625 
Q 40.234375 40.328125 40.046875 43.0625 
L 39.84375 43.0625 
Q 39.703125 41.015625 38.71875 37.984375 
L 27.09375 0 
L 17.4375 0 
L 1.21875 54 
L 11.1875 54 
L 21.96875 13.96875 
Q 22.46875 12.15625 22.703125 9.03125 
L 23.09375 9.03125 
Q 23.296875 11.71875 24.03125 14.109375 
L 35.640625 54 
L 44.484375 54 
L 55.8125 13.921875 
Q 56.296875 12.15625 56.59375 8.9375 
L 57.03125 8.9375 
Q 57.125 11.078125 57.90625 13.921875 
L 68.453125 54 
z
" id="MicrosoftYaHei-77"/>
      <path d="M 55.421875 0 
L 45.84375 0 
L 45.84375 8.984375 
L 45.65625 8.984375 
Q 39.75 -1.265625 27.296875 -1.265625 
Q 17.046875 -1.265625 10.984375 6.03125 
Q 4.9375 13.328125 4.9375 25.734375 
Q 4.9375 39.109375 11.765625 47.1875 
Q 18.609375 55.28125 29.640625 55.28125 
Q 40.671875 55.28125 45.65625 46.6875 
L 45.84375 46.6875 
L 45.84375 79.9375 
L 55.421875 79.9375 
z
M 45.90625 32.125 
Q 45.90625 38.625 41.625 42.984375 
Q 37.359375 47.359375 31.109375 47.359375 
Q 23.484375 47.359375 19.09375 41.671875 
Q 14.703125 35.984375 14.703125 26.171875 
Q 14.703125 17.140625 18.921875 11.890625 
Q 23.140625 6.640625 30.171875 6.640625 
Q 37.109375 6.640625 41.5 11.78125 
Q 45.90625 16.9375 45.90625 24.609375 
z
" id="MicrosoftYaHei-64"/>
     </defs>
     <g transform="translate(94.509234 52.990625)scale(0.13 -0.13)">
      <use xlink:href="#MicrosoftYaHei-73"/>
      <use x="46.289062" xlink:href="#MicrosoftYaHei-65"/>
      <use x="103.027344" xlink:href="#MicrosoftYaHei-70"/>
      <use x="166.878906" xlink:href="#MicrosoftYaHei-61"/>
      <use x="222.152344" xlink:href="#MicrosoftYaHei-6c"/>
      <use x="248.763672" xlink:href="#MicrosoftYaHei-20"/>
      <use x="278.353516" xlink:href="#MicrosoftYaHei-77"/>
      <use x="357.308594" xlink:href="#MicrosoftYaHei-69"/>
      <use x="383.919922" xlink:href="#MicrosoftYaHei-64"/>
      <use x="447.884766" xlink:href="#MicrosoftYaHei-74"/>
      <use x="485.140625" xlink:href="#MicrosoftYaHei-68"/>
      <use x="546.712891" xlink:href="#MicrosoftYaHei-20"/>
      <use x="576.302734" xlink:href="#MicrosoftYaHei-28"/>
      <use x="609.701172" xlink:href="#MicrosoftYaHei-63"/>
      <use x="659.847656" xlink:href="#MicrosoftYaHei-6d"/>
      <use x="753.548828" xlink:href="#MicrosoftYaHei-29"/>
     </g>
    </g>
    <g id="patch_22">
     <path d="M 58.109234 73.114219 
L 84.109234 73.114219 
L 84.109234 64.014219 
L 58.109234 64.014219 
z
" style="fill:#2ca02c;"/>
    </g>
    <g id="text_14">
     <!-- petal length (cm) -->
     <g transform="translate(94.509234 73.114219)scale(0.13 -0.13)">
      <use xlink:href="#MicrosoftYaHei-70"/>
      <use x="63.867188" xlink:href="#MicrosoftYaHei-65"/>
      <use x="120.605469" xlink:href="#MicrosoftYaHei-74"/>
      <use x="157.861328" xlink:href="#MicrosoftYaHei-61"/>
      <use x="213.134766" xlink:href="#MicrosoftYaHei-6c"/>
      <use x="239.746094" xlink:href="#MicrosoftYaHei-20"/>
      <use x="269.335938" xlink:href="#MicrosoftYaHei-6c"/>
      <use x="295.947266" xlink:href="#MicrosoftYaHei-65"/>
      <use x="352.685547" xlink:href="#MicrosoftYaHei-6e"/>
      <use x="414.306641" xlink:href="#MicrosoftYaHei-67"/>
      <use x="478.271484" xlink:href="#MicrosoftYaHei-74"/>
      <use x="515.527344" xlink:href="#MicrosoftYaHei-68"/>
      <use x="577.099609" xlink:href="#MicrosoftYaHei-20"/>
      <use x="606.689453" xlink:href="#MicrosoftYaHei-28"/>
      <use x="640.087891" xlink:href="#MicrosoftYaHei-63"/>
      <use x="690.234375" xlink:href="#MicrosoftYaHei-6d"/>
      <use x="783.935547" xlink:href="#MicrosoftYaHei-29"/>
     </g>
    </g>
    <g id="patch_23">
     <path d="M 58.109234 93.312969 
L 84.109234 93.312969 
L 84.109234 84.212969 
L 58.109234 84.212969 
z
" style="fill:#d62728;"/>
    </g>
    <g id="text_15">
     <!-- petal width (cm) -->
     <g transform="translate(94.509234 93.312969)scale(0.13 -0.13)">
      <use xlink:href="#MicrosoftYaHei-70"/>
      <use x="63.867188" xlink:href="#MicrosoftYaHei-65"/>
      <use x="120.605469" xlink:href="#MicrosoftYaHei-74"/>
      <use x="157.861328" xlink:href="#MicrosoftYaHei-61"/>
      <use x="213.134766" xlink:href="#MicrosoftYaHei-6c"/>
      <use x="239.746094" xlink:href="#MicrosoftYaHei-20"/>
      <use x="269.335938" xlink:href="#MicrosoftYaHei-77"/>
      <use x="348.291016" xlink:href="#MicrosoftYaHei-69"/>
      <use x="374.902344" xlink:href="#MicrosoftYaHei-64"/>
      <use x="438.867188" xlink:href="#MicrosoftYaHei-74"/>
      <use x="476.123047" xlink:href="#MicrosoftYaHei-68"/>
      <use x="537.695312" xlink:href="#MicrosoftYaHei-20"/>
      <use x="567.285156" xlink:href="#MicrosoftYaHei-28"/>
      <use x="600.683594" xlink:href="#MicrosoftYaHei-63"/>
      <use x="650.830078" xlink:href="#MicrosoftYaHei-6d"/>
      <use x="744.53125" xlink:href="#MicrosoftYaHei-29"/>
     </g>
    </g>
   </g>
  </g>
 </g>
 <defs>
  <clipPath id="p5ecfcb9b3e">
   <rect height="388.674" width="580.32" x="46.409234" y="10.7"/>
  </clipPath>
 </defs>
</svg>
